<svg baseProfile="full" font-family="Arial, Helvetica, sans-serif" height="745.0" shape-rendering="geometricPrecision" version="1.1" viewBox="0 0 480.0 745.0" width="480.0" xmlns="http://www.w3.org/2000/svg" xmlns:ev="http://www.w3.org/2001/xml-events" xmlns:xlink="http://www.w3.org/1999/xlink"><defs><filter height="115%" id="wallshadow" width="115%" x="-5%" y="-5%"><feGaussianBlur in="SourceAlpha" result="blur" stdDeviation="3" /><feOffset dx="2" dy="3" in="blur" result="shadow" /><feMerge><feMergeNode in="shadow" /><feMergeNode in="SourceGraphic" /></feMerge></filter><pattern height="10" id="p_bedroom" patternUnits="userSpaceOnUse" width="10"><rect fill="#E8EEF8" height="10" width="10" x="0" y="0" /><line opacity="0.4" stroke="#C8D4EC" stroke-width="0.5" x1="0" x2="10" y1="10" y2="0" /></pattern><pattern height="10" id="p_living" patternUnits="userSpaceOnUse" width="10"><rect fill="#FDF6E3" height="10" width="10" x="0" y="0" /><line opacity="0.4" stroke="#EDE0C8" stroke-width="0.5" x1="0" x2="10" y1="10" y2="0" /></pattern><pattern height="10" id="p_kitchen" patternUnits="userSpaceOnUse" width="10"><rect fill="#E8F5EC" height="10" width="10" x="0" y="0" /><line opacity="0.4" stroke="#C8E0D0" stroke-width="0.5" x1="0" x2="10" y1="10" y2="0" /></pattern><pattern height="10" id="p_bath" patternUnits="userSpaceOnUse" width="10"><rect fill="#E0F2F8" height="10" width="10" x="0" y="0" /><line opacity="0.4" stroke="#B8D8E8" stroke-width="0.5" x1="0" x2="10" y1="10" y2="0" /></pattern><pattern height="10" id="p_service" patternUnits="userSpaceOnUse" width="10"><rect fill="#F0F0EC" height="10" width="10" x="0" y="0" /><line opacity="0.4" stroke="#D8D8D0" stroke-width="0.5" x1="0" x2="10" y1="10" y2="0" /></pattern></defs><rect fill="#F5F0E8" height="745.0" width="480.0" x="0" y="0" /><rect fill="none" height="500.0" stroke="#BBBBBB" stroke-width="0.75" width="300.0" x="90" y="90" /><rect fill="#EBE6D8" height="50.0" stroke="none" width="300.0" x="90" y="90" /><rect fill="#EBE6D8" height="30.0" stroke="none" width="300.0" x="90" y="560.0" /><rect fill="#EBE6D8" height="420.0" stroke="none" width="20.0" x="90" y="140.0" /><rect fill="#EBE6D8" height="420.0" stroke="none" width="20.0" x="370.0" y="140.0" /><rect fill="none" height="420.0" stroke="#999999" stroke-dasharray="5,3" stroke-width="0.75" width="260.0" x="110.0" y="140.0" /><rect fill="#EEEBD8" height="110.0" stroke="#2A2A2A" stroke-width="1.2" width="120.0" x="110.0" y="140.0" /><rect fill="#E8F2E8" height="110.0" stroke="#2A2A2A" stroke-width="1.2" width="140.0" x="230.0" y="140.0" /><rect fill="#FDF0DC" height="56.2" stroke="#2A2A2A" stroke-width="1.2" width="48.4" x="110.0" y="250.0" /><rect fill="#F0F0EC" height="49.900000000000006" stroke="#2A2A2A" stroke-width="1.2" width="45.099999999999994" x="158.4" y="250.0" /><rect fill="#FDF6E3" height="68.60000000000001" stroke="#2A2A2A" stroke-width="1.2" width="93.5" x="110.0" y="306.20000000000005" /><rect fill="#FDF6E3" height="124.80000000000001" stroke="#2A2A2A" stroke-width="1.2" width="67.69999999999999" x="203.5" y="250.0" /><rect fill="#E8F5EC" height="124.80000000000001" stroke="#2A2A2A" stroke-width="1.2" width="98.80000000000001" x="271.20000000000005" y="250.0" /><rect fill="#F5F5EE" height="50.0" stroke="#2A2A2A" stroke-width="1.2" width="260.0" x="110.0" y="374.8" /><rect fill="#E8EEF8" height="110.0" stroke="#2A2A2A" stroke-width="1.2" width="90.0" x="110.0" y="424.8" /><rect fill="#E0F2F8" height="63.8" stroke="#2A2A2A" stroke-width="1.2" width="37.8" x="162.2" y="424.8" /><rect fill="#EEF2FF" height="110.0" stroke="#2A2A2A" stroke-width="1.2" width="80.0" x="200.0" y="424.8" /><rect fill="#E8EEF8" height="110.0" stroke="#2A2A2A" stroke-width="1.2" width="90.0" x="280.0" y="424.8" /><rect fill="#E0F2F8" height="63.8" stroke="#2A2A2A" stroke-width="1.2" width="37.8" x="280.0" y="424.8" /><rect fill="#CCCCBB" height="64.8" rx="8" ry="8" stroke="#888880" stroke-width="0.75" width="50.0" x="145.0" y="162.6" /><rect fill="#AACCDD" height="12" rx="2" ry="2" stroke="none" stroke-width="0" width="42.0" x="149.0" y="168.6" /><rect fill="#AACCDD" height="12" rx="2" ry="2" stroke="none" stroke-width="0" width="42.0" x="149.0" y="209.39999999999998" /><rect fill="#444444" height="14" rx="2" ry="2" stroke="none" stroke-width="0" width="8" x="144.0" y="170.6" /><rect fill="#444444" height="14" rx="2" ry="2" stroke="none" stroke-width="0" width="8" x="188.0" y="170.6" /><rect fill="#444444" height="14" rx="2" ry="2" stroke="none" stroke-width="0" width="8" x="144.0" y="205.39999999999998" /><rect fill="#444444" height="14" rx="2" ry="2" stroke="none" stroke-width="0" width="8" x="188.0" y="205.39999999999998" /><circle cx="286.0" cy="195.0" fill="#C8B898" r="11" stroke="#A09878" stroke-width="0.75" /><circle cx="314.0" cy="195.0" fill="#C8B898" r="11" stroke="#A09878" stroke-width="0.75" /><circle cx="300.0" cy="195.0" fill="#B8A880" r="7" stroke="#908860" stroke-width="0.75" /><rect fill="#ECD090" height="14" rx="0" ry="0" stroke="#C8A840" stroke-width="1.0" width="21.299999999999997" x="123.54999999999998" y="264.0" /><circle cx="134.2" cy="286.0" fill="#F5C030" r="5" stroke="#D09010" stroke-width="0.75" /><rect fill="#C8BAB0" height="28" rx="4" ry="4" stroke="#A89890" stroke-width="0.75" width="60.269999999999996" x="126.61500000000001" y="332.50000000000006" /><line stroke="#AAAAAA" stroke-width="0.6" x1="146.705" x2="146.705" y1="332.50000000000006" y2="360.50000000000006" /><line stroke="#AAAAAA" stroke-width="0.6" x1="166.79500000000002" x2="166.79500000000002" y1="332.50000000000006" y2="360.50000000000006" /><rect fill="#B8A888" height="24" rx="4" ry="4" stroke="#988870" stroke-width="0.6" width="44" x="134.75" y="365.50000000000006" /><rect fill="#A8988A" height="12" rx="0" ry="0" stroke="#888070" stroke-width="0.6" width="72" x="120.75" y="351.80000000000007" /><rect fill="#C4B08A" height="34" rx="5" ry="5" stroke="#A49070" stroke-width="0.75" width="31.004999999999992" x="221.8475" y="295.4" /><rect fill="#B09870" height="10" rx="2" ry="2" stroke="#907850" stroke-width="0.5" width="10" x="209.8475" y="307.4" /><rect fill="#B09870" height="10" rx="2" ry="2" stroke="#907850" stroke-width="0.5" width="10" x="254.8525" y="307.4" /><rect fill="#B09870" height="10" rx="2" ry="2" stroke="#907850" stroke-width="0.5" width="10" x="226.35" y="283.4" /><rect fill="#B09870" height="10" rx="2" ry="2" stroke="#907850" stroke-width="0.5" width="10" x="238.35" y="283.4" /><rect fill="#B09870" height="10" rx="2" ry="2" stroke="#907850" stroke-width="0.5" width="10" x="226.35" y="331.4" /><rect fill="#B09870" height="10" rx="2" ry="2" stroke="#907850" stroke-width="0.5" width="10" x="238.35" y="331.4" /><rect fill="#D8D0C4" height="16" rx="0" ry="0" stroke="#B0A898" stroke-width="0.75" width="78.80000000000001" x="281.20000000000005" y="260.0" /><rect fill="#B8D8E0" height="10" rx="0" ry="0" stroke="#88A8B0" stroke-width="0.6" width="18" x="285.20000000000005" y="263.0" /><circle cx="338.00000000000006" cy="264.0" fill="#888888" r="3.5" stroke="#555555" stroke-width="0.5" /><circle cx="348.00000000000006" cy="264.0" fill="#888888" r="3.5" stroke="#555555" stroke-width="0.5" /><circle cx="338.00000000000006" cy="271.0" fill="#888888" r="3.5" stroke="#555555" stroke-width="0.5" /><circle cx="348.00000000000006" cy="271.0" fill="#888888" r="3.5" stroke="#555555" stroke-width="0.5" /><rect fill="#D8D0C4" height="88.80000000000001" rx="0" ry="0" stroke="#B0A898" stroke-width="0.75" width="16" x="344.00000000000006" y="276.0" /><rect fill="#8AAAC8" height="7" rx="3" ry="3" stroke="#6A8AAA" stroke-width="1.0" width="47.6" x="131.2" y="438.8" /><rect fill="#C5D5E8" height="57.8" rx="2" ry="2" stroke="#8AAAC8" stroke-width="0.75" width="47.6" x="131.2" y="445.8" /><ellipse cx="145.48" cy="451.8" fill="#FFFFFF" rx="7.14" ry="5" stroke="#AABBD0" stroke-width="0.5" /><ellipse cx="157.38" cy="451.8" fill="#FFFFFF" rx="7.14" ry="5" stroke="#AABBD0" stroke-width="0.5" /><rect fill="#C8B89A" height="14" rx="0" ry="0" stroke="#A89878" stroke-width="0.75" width="57.4" x="126.3" y="510.79999999999995" /><line stroke="#AAAAAA" stroke-width="0.6" x1="145.43333333333334" x2="145.43333333333334" y1="510.79999999999995" y2="524.8" /><line stroke="#AAAAAA" stroke-width="0.6" x1="164.56666666666666" x2="164.56666666666666" y1="510.79999999999995" y2="524.8" /><rect fill="#8AAAC8" height="7" rx="3" ry="3" stroke="#6A8AAA" stroke-width="1.0" width="36.0" x="222.0" y="438.8" /><rect fill="#C5D5E8" height="54.2" rx="2" ry="2" stroke="#8AAAC8" stroke-width="0.75" width="36.0" x="222.0" y="445.8" /><rect fill="#C8B89A" height="12" rx="0" ry="0" stroke="#A89878" stroke-width="0.75" width="46.800000000000004" x="216.6" y="511.79999999999995" /><rect fill="#8AAAC8" height="7" rx="3" ry="3" stroke="#6A8AAA" stroke-width="1.0" width="47.6" x="301.2" y="438.8" /><rect fill="#C5D5E8" height="57.8" rx="2" ry="2" stroke="#8AAAC8" stroke-width="0.75" width="47.6" x="301.2" y="445.8" /><ellipse cx="315.48" cy="451.8" fill="#FFFFFF" rx="7.14" ry="5" stroke="#AABBD0" stroke-width="0.5" /><ellipse cx="327.38" cy="451.8" fill="#FFFFFF" rx="7.14" ry="5" stroke="#AABBD0" stroke-width="0.5" /><rect fill="#C8B89A" height="14" rx="0" ry="0" stroke="#A89878" stroke-width="0.75" width="57.4" x="296.3" y="510.79999999999995" /><line stroke="#AAAAAA" stroke-width="0.6" x1="315.43333333333334" x2="315.43333333333334" y1="510.79999999999995" y2="524.8" /><line stroke="#AAAAAA" stroke-width="0.6" x1="334.56666666666666" x2="334.56666666666666" y1="510.79999999999995" y2="524.8" /><rect fill="#383838" height="110.0" width="4.0" x="228.0" y="140.0" /><rect fill="#383838" height="4.0" width="48.400000000000006" x="110.0" y="248.0" /><rect fill="#383838" height="4.0" width="45.099999999999994" x="158.4" y="248.0" /><rect fill="#383838" height="4.0" width="26.5" x="203.5" y="248.0" /><rect fill="#383838" height="4.0" width="41.19999999999999" x="230.0" y="248.0" /><rect fill="#383838" height="4.0" width="98.79999999999995" x="271.20000000000005" y="248.0" /><rect fill="#383838" height="49.89999999999998" width="4.0" x="156.4" y="250.0" /><rect fill="#383838" height="49.89999999999998" width="4.0" x="201.5" y="250.0" /><rect fill="#383838" height="68.59999999999997" width="4.0" x="201.5" y="306.20000000000005" /><rect fill="#383838" height="4.0" width="67.69999999999999" x="203.5" y="372.8" /><rect fill="#383838" height="4.0" width="98.79999999999995" x="271.20000000000005" y="372.8" /><rect fill="#383838" height="4.0" width="90.0" x="110.0" y="422.8" /><rect fill="#383838" height="4.0" width="37.80000000000001" x="162.2" y="422.8" /><rect fill="#383838" height="4.0" width="80.0" x="200.0" y="422.8" /><rect fill="#383838" height="4.0" width="90.0" x="280.0" y="422.8" /><rect fill="#383838" height="4.0" width="37.80000000000001" x="280.0" y="422.8" /><rect fill="#383838" height="63.80000000000001" width="4.0" x="160.2" y="424.8" /><rect fill="#383838" height="109.99999999999994" width="4.0" x="198.0" y="424.8" /><rect fill="#383838" height="63.80000000000001" width="4.0" x="198.0" y="424.8" /><rect fill="#383838" height="109.99999999999994" width="4.0" x="278.0" y="424.8" /><rect fill="#383838" height="63.80000000000001" width="4.0" x="278.0" y="424.8" /><rect fill="#383838" height="63.80000000000001" width="4.0" x="278.0" y="424.8" /><g filter="url(#wallshadow)"><rect fill="#1A1A1A" height="8.0" width="276.0" x="102.0" y="132.0" /><rect fill="#1A1A1A" height="8.0" width="276.0" x="102.0" y="560.0" /><rect fill="#1A1A1A" height="420.0" width="8.0" x="102.0" y="140.0" /><rect fill="#1A1A1A" height="420.0" width="8.0" x="370.0" y="140.0" /></g><rect fill="#F5F0E8" height="36" stroke="none" width="17.0" x="102.0" y="257.29" /><line stroke="#335577" stroke-width="1.5" x1="108.0" x2="108.0" y1="257.29" y2="293.29" /><line stroke="#4A88AA" stroke-width="0.75" x1="110.0" x2="110.0" y1="257.29" y2="293.29" /><line stroke="#335577" stroke-width="1.5" x1="112.0" x2="112.0" y1="257.29" y2="293.29" /><rect fill="#F5F0E8" height="36" stroke="none" width="17.0" x="102.0" y="319.07000000000005" /><line stroke="#335577" stroke-width="1.5" x1="108.0" x2="108.0" y1="319.07000000000005" y2="355.07000000000005" /><line stroke="#4A88AA" stroke-width="0.75" x1="110.0" x2="110.0" y1="319.07000000000005" y2="355.07000000000005" /><line stroke="#335577" stroke-width="1.5" x1="112.0" x2="112.0" y1="319.07000000000005" y2="355.07000000000005" /><rect fill="#F5F0E8" height="36" stroke="none" width="17.0" x="362.00000000000006" y="288.16" /><line stroke="#335577" stroke-width="1.5" x1="368.00000000000006" x2="368.00000000000006" y1="288.16" y2="324.16" /><line stroke="#4A88AA" stroke-width="0.75" x1="370.00000000000006" x2="370.00000000000006" y1="288.16" y2="324.16" /><line stroke="#335577" stroke-width="1.5" x1="372.00000000000006" x2="372.00000000000006" y1="288.16" y2="324.16" /><rect fill="#F5F0E8" height="36" stroke="none" width="17.0" x="102.0" y="456.3" /><line stroke="#335577" stroke-width="1.5" x1="108.0" x2="108.0" y1="456.3" y2="492.3" /><line stroke="#4A88AA" stroke-width="0.75" x1="110.0" x2="110.0" y1="456.3" y2="492.3" /><line stroke="#335577" stroke-width="1.5" x1="112.0" x2="112.0" y1="456.3" y2="492.3" /><rect fill="#F5F0E8" height="36" stroke="none" width="17.0" x="362.0" y="456.3" /><line stroke="#335577" stroke-width="1.5" x1="368.0" x2="368.0" y1="456.3" y2="492.3" /><line stroke="#4A88AA" stroke-width="0.75" x1="370.0" x2="370.0" y1="456.3" y2="492.3" /><line stroke="#335577" stroke-width="1.5" x1="372.0" x2="372.0" y1="456.3" y2="492.3" /><line stroke="#555555" stroke-width="1.8" x1="361.0" x2="361.0" y1="189.5" y2="159.5" /><path d="M361.0,159.5 A30.0,30.0 0 0 0 391.0,189.5" fill="none" stroke="#555555" stroke-dasharray="3,2" stroke-width="1.2" /><line stroke="#555555" stroke-width="1.8" x1="279.0" x2="279.0" y1="140.0" y2="180.0" /><path d="M279.0,180.0 A40.0,40.0 0 0 1 319.0,140.0" fill="none" stroke="#555555" stroke-dasharray="3,2" stroke-width="1.2" /><line stroke="#555555" stroke-width="1.8" x1="124.52" x2="124.52" y1="306.2" y2="282.2" /><path d="M124.5,282.2 A24.0,24.0 0 0 0 148.5,306.2" fill="none" stroke="#555555" stroke-dasharray="3,2" stroke-width="1.2" /><line stroke="#555555" stroke-width="1.8" x1="171.93" x2="171.93" y1="299.9" y2="275.9" /><path d="M171.9,275.9 A24.0,24.0 0 0 0 195.9,299.9" fill="none" stroke="#555555" stroke-dasharray="3,2" stroke-width="1.2" /><line stroke="#555555" stroke-width="1.8" x1="170.775" x2="170.775" y1="374.80000000000007" y2="344.80000000000007" /><path d="M170.8,344.8 A30.0,30.0 0 0 0 200.8,374.8" fill="none" stroke="#555555" stroke-dasharray="3,2" stroke-width="1.2" /><line stroke="#555555" stroke-width="1.8" x1="271.20000000000005" x2="301.20000000000005" y1="293.68" y2="293.68" /><path d="M301.2,293.7 A30.0,30.0 0 0 0 271.2,323.7" fill="none" stroke="#555555" stroke-dasharray="3,2" stroke-width="1.2" /><line stroke="#555555" stroke-width="1.8" x1="137.0" x2="137.0" y1="424.8" y2="454.8" /><path d="M137.0,454.8 A30.0,30.0 0 0 1 167.0,424.8" fill="none" stroke="#555555" stroke-dasharray="3,2" stroke-width="1.2" /><line stroke="#555555" stroke-width="1.8" x1="162.2" x2="186.2" y1="456.7" y2="456.7" /><path d="M186.2,456.7 A24.0,24.0 0 0 0 162.2,480.7" fill="none" stroke="#555555" stroke-dasharray="3,2" stroke-width="1.2" /><line stroke="#555555" stroke-width="1.8" x1="224.0" x2="224.0" y1="424.8" y2="454.8" /><path d="M224.0,454.8 A30.0,30.0 0 0 1 254.0,424.8" fill="none" stroke="#555555" stroke-dasharray="3,2" stroke-width="1.2" /><line stroke="#555555" stroke-width="1.8" x1="307.0" x2="307.0" y1="424.8" y2="454.8" /><path d="M307.0,454.8 A30.0,30.0 0 0 1 337.0,424.8" fill="none" stroke="#555555" stroke-dasharray="3,2" stroke-width="1.2" /><line stroke="#555555" stroke-width="1.8" x1="280.0" x2="304.0" y1="456.7" y2="456.7" /><path d="M304.0,456.7 A24.0,24.0 0 0 0 280.0,480.7" fill="none" stroke="#555555" stroke-dasharray="3,2" stroke-width="1.2" /><text dominant-baseline="middle" fill="#1A1A1A" font-size="10" font-weight="700" letter-spacing="0.2" text-anchor="middle" x="170.0" y="190.0">CAR PORCH</text><text dominant-baseline="middle" fill="#666666" font-size="7.5" font-style="italic" text-anchor="middle" x="170.0" y="203.0">12' × 11'  •  132 sqft</text><text dominant-baseline="middle" fill="#1A1A1A" font-size="10" font-weight="700" letter-spacing="0.2" text-anchor="middle" x="300.0" y="190.0">SIT OUT</text><text dominant-baseline="middle" fill="#666666" font-size="7.5" font-style="italic" text-anchor="middle" x="300.0" y="203.0">14' × 11'  •  154 sqft</text><text dominant-baseline="middle" fill="#1A1A1A" font-size="6" font-weight="700" text-anchor="middle" x="134.2" y="278.1">POOJA ROOM</text><text dominant-baseline="middle" fill="#1A1A1A" font-size="6" font-weight="700" text-anchor="middle" x="180.95" y="274.95">UTILITY</text><text dominant-baseline="middle" fill="#1A1A1A" font-size="10" font-weight="700" letter-spacing="0.2" text-anchor="middle" x="156.75" y="335.50000000000006">LIVING ROOM</text><text dominant-baseline="middle" fill="#666666" font-size="7.5" font-style="italic" text-anchor="middle" x="156.75" y="348.50000000000006">9' × 7'  •  64 sqft</text><text dominant-baseline="middle" fill="#1A1A1A" font-size="7.522222222222221" font-weight="700" letter-spacing="0.2" text-anchor="middle" x="237.35" y="307.4">DINING ROOM</text><text dominant-baseline="middle" fill="#666666" font-size="5.641666666666666" font-style="italic" text-anchor="middle" x="237.35" y="320.4">7' × 12'  •  84 sqft</text><text dominant-baseline="middle" fill="#1A1A1A" font-size="10" font-weight="700" letter-spacing="0.2" text-anchor="middle" x="320.6" y="307.4">KITCHEN</text><text dominant-baseline="middle" fill="#666666" font-size="7.5" font-style="italic" text-anchor="middle" x="320.6" y="320.4">10' × 12'  •  123 sqft</text><text dominant-baseline="middle" fill="#1A1A1A" font-size="10" font-weight="700" letter-spacing="0.2" text-anchor="middle" x="240.0" y="394.8">CORRIDOR</text><text dominant-baseline="middle" fill="#666666" font-size="7.5" font-style="italic" text-anchor="middle" x="240.0" y="407.8">26' × 5'  •  130 sqft</text><text dominant-baseline="middle" fill="#1A1A1A" font-size="10" font-weight="700" letter-spacing="0.2" text-anchor="middle" x="155.0" y="474.8">PARENTS BEDROOM</text><text dominant-baseline="middle" fill="#666666" font-size="7.5" font-style="italic" text-anchor="middle" x="155.0" y="487.8">9' × 11'  •  99 sqft</text><text dominant-baseline="middle" fill="#1A1A1A" font-size="6" font-weight="700" text-anchor="middle" x="181.1" y="456.7">BATH</text><text dominant-baseline="middle" fill="#1A1A1A" font-size="8.88888888888889" font-weight="700" letter-spacing="0.2" text-anchor="middle" x="240.0" y="474.8">GUEST ROOM</text><text dominant-baseline="middle" fill="#666666" font-size="6.666666666666667" font-style="italic" text-anchor="middle" x="240.0" y="487.8">8' × 11'  •  88 sqft</text><text dominant-baseline="middle" fill="#1A1A1A" font-size="10" font-weight="700" letter-spacing="0.2" text-anchor="middle" x="325.0" y="474.8">MASTER BEDROOM</text><text dominant-baseline="middle" fill="#666666" font-size="7.5" font-style="italic" text-anchor="middle" x="325.0" y="487.8">9' × 11'  •  99 sqft</text><text dominant-baseline="middle" fill="#1A1A1A" font-size="6" font-weight="700" text-anchor="middle" x="298.9" y="456.7">BATH</text><line stroke="#666666" stroke-width="0.75" x1="90" x2="390.0" y1="60" y2="60" /><line stroke="#666666" stroke-width="1.0" x1="90" x2="90" y1="55" y2="65" /><line stroke="#666666" stroke-width="1.0" x1="390.0" x2="390.0" y1="55" y2="65" /><text fill="#444444" font-size="8" font-weight="600" text-anchor="middle" x="240.0" y="55">30'-0"</text><line stroke="#666666" stroke-width="0.75" x1="60" x2="60" y1="90" y2="590.0" /><line stroke="#666666" stroke-width="1.0" x1="55" x2="65" y1="90" y2="90" /><line stroke="#666666" stroke-width="1.0" x1="55" x2="65" y1="590.0" y2="590.0" /><text dominant-baseline="middle" fill="#444444" font-size="8" font-weight="600" text-anchor="middle" transform="rotate(-90,52,340.0)" x="52" y="340.0">50'-0"</text><line stroke="#666666" stroke-width="0.75" x1="110.0" x2="370.0" y1="126.0" y2="126.0" /><line stroke="#666666" stroke-width="1.0" x1="110.0" x2="110.0" y1="121.0" y2="131.0" /><line stroke="#666666" stroke-width="1.0" x1="370.0" x2="370.0" y1="121.0" y2="131.0" /><text fill="#444444" font-size="7" font-weight="400" text-anchor="middle" x="240.0" y="121.0">26'-0"</text><line stroke="#666666" stroke-width="0.75" x1="96.0" x2="96.0" y1="140.0" y2="560.0" /><line stroke="#666666" stroke-width="1.0" x1="91.0" x2="101.0" y1="140.0" y2="140.0" /><line stroke="#666666" stroke-width="1.0" x1="91.0" x2="101.0" y1="560.0" y2="560.0" /><text dominant-baseline="middle" fill="#444444" font-size="7" font-weight="400" text-anchor="middle" transform="rotate(-90,88.0,350.0)" x="88.0" y="350.0">42'-0"</text><circle cx="403.0" cy="77.0" fill="white" r="28.0" stroke="#888888" stroke-width="1" /><polygon fill="#1A1A1A" points="403.0,53.0 397.0,71.0 409.0,71.0" /><polygon fill="white" points="403.0,101.0 397.0,83.0 409.0,83.0" stroke="#1A1A1A" stroke-width="1" /><circle cx="403.0" cy="77.0" fill="#333333" r="4" /><text dominant-baseline="middle" fill="#1A1A1A" font-size="10" font-weight="bold" text-anchor="middle" x="403.0" y="48.0">N</text><text dominant-baseline="middle" fill="#1A1A1A" font-size="10" font-weight="bold" text-anchor="middle" x="403.0" y="109.0">S</text><text dominant-baseline="middle" fill="#1A1A1A" font-size="10" font-weight="bold" text-anchor="middle" x="434.0" y="80.0">E</text><text dominant-baseline="middle" fill="#1A1A1A" font-size="10" font-weight="bold" text-anchor="middle" x="372.0" y="80.0">W</text><rect fill="#FFFFFF" height="65" stroke="#333333" stroke-width="1.5" width="480.0" x="0" y="680.0" /><line stroke="#CCCCCC" stroke-width="0.75" x1="172.79999999999998" x2="172.79999999999998" y1="680.0" y2="745.0" /><line stroke="#CCCCCC" stroke-width="0.75" x1="336.0" x2="336.0" y1="680.0" y2="745.0" /><text dominant-baseline="middle" fill="#111111" font-size="11" font-weight="700" x="14" y="702.5">RESIDENTIAL FLOOR PLAN</text><text dominant-baseline="middle" fill="#555555" font-size="7.5" x="14" y="722.5">3BHK  ·  2 STOREY  ·  CONTEMPORARY SOUTH INDIAN</text><text dominant-baseline="middle" fill="#222222" font-size="9" font-weight="600" text-anchor="middle" x="254.39999999999998" y="703.5">Plot 30'-0" × 50'-0"</text><text dominant-baseline="middle" fill="#555555" font-size="7.5" text-anchor="middle" x="254.39999999999998" y="721.5">Built-up: 1092 sq ft  |  Scale 1:100</text><rect fill="#E8F5E9" height="20" rx="4" stroke="#4CAF50" stroke-width="1" width="118" x="349.0" y="690.5" /><text dominant-baseline="middle" fill="#2E7D32" font-size="8" font-weight="600" text-anchor="middle" x="408.0" y="700.5">✓ VASTU COMPLIANT</text><text dominant-baseline="middle" fill="#444444" font-size="8" text-anchor="middle" x="408.0" y="722.5">Budget: ₹280 Lakhs</text></svg>