<svg baseProfile="full" height="725.0" shape-rendering="geometricPrecision" version="1.1" viewBox="0 0 460.0 725.0" width="460.0" xmlns="http://www.w3.org/2000/svg" xmlns:ev="http://www.w3.org/2001/xml-events" xmlns:xlink="http://www.w3.org/1999/xlink"><defs /><g id="layer_bg"><rect fill="#F5F0E8" height="725.0" width="460.0" x="0" y="0" /></g><g id="layer_plot"><rect fill="none" height="500.0" stroke="#AAAAAA" stroke-width="0.5" width="300.0" x="80.0" y="80.0" /></g><g id="layer_setbacks"><rect fill="#EDE8DC" height="50.0" stroke="none" width="300.0" x="80.0" y="80.0" /><rect fill="#EDE8DC" height="30.0" stroke="none" width="300.0" x="80.0" y="550.0" /><rect fill="#EDE8DC" height="420.0" stroke="none" width="20.0" x="80.0" y="130.0" /><rect fill="#EDE8DC" height="420.0" stroke="none" width="20.0" x="360.0" y="130.0" /></g><g id="layer_room_fills"><rect fill="#EEEBD8" height="120.0" stroke="#2A2A2A" stroke-width="1.5" width="156.0" x="100.0" y="130.0" /><rect fill="#E8F2E8" height="120.0" stroke="#2A2A2A" stroke-width="1.5" width="104.0" x="256.0" y="130.0" /><rect fill="#FDF0DC" height="117.00000000000001" stroke="#2A2A2A" stroke-width="1.5" width="42.9" x="100.0" y="250.0" /><rect fill="#F0F0EC" height="52.650000000000006" stroke="#2A2A2A" stroke-width="1.5" width="35.75" x="142.9" y="250.0" /><rect fill="#FDF6E3" height="64.35000000000001" stroke="#2A2A2A" stroke-width="1.5" width="78.65" x="100.0" y="302.65" /><rect fill="#FDF6E3" height="117.00000000000001" stroke="#2A2A2A" stroke-width="1.5" width="64.35000000000001" x="178.65" y="250.0" /><rect fill="#E8F5EC" height="117.00000000000001" stroke="#2A2A2A" stroke-width="1.5" width="117.00000000000001" x="243.0" y="250.0" /><rect fill="#F5F5EE" height="40.0" stroke="#2A2A2A" stroke-width="1.5" width="260.0" x="100.0" y="367.0" /><rect fill="#E0F2F8" height="80.0" stroke="#2A2A2A" stroke-width="1.5" width="50.0" x="310.0" y="407.0" /><rect fill="#E8EEF8" height="85.8" stroke="#2A2A2A" stroke-width="1.5" width="98.80000000000001" x="261.2" y="407.0" /><rect fill="#E0F2F8" height="80.0" stroke="#2A2A2A" stroke-width="1.5" width="50.0" x="141.0" y="407.0" /><rect fill="#E8EEF8" height="85.8" stroke="#2A2A2A" stroke-width="1.5" width="91.0" x="100.0" y="407.0" /><rect fill="#E8EEF8" height="85.8" stroke="#2A2A2A" stroke-width="1.5" width="70.19999999999997" x="191.0" y="407.0" /><rect fill="#EDEDED" height="57.2" stroke="#2A2A2A" stroke-width="1.5" width="45.5" x="100.0" y="492.8" /><rect fill="#E0F2F8" height="57.2" stroke="#2A2A2A" stroke-width="1.5" width="45.5" x="145.5" y="492.8" /></g><g id="layer_furniture"><rect fill="#CCCCBB" height="75.0" rx="8" stroke="#888880" stroke-width="0.75" width="56.0" x="150.0" y="152.5" /><rect fill="#AACCDD" height="12.0" rx="2" stroke="none" width="48.0" x="154.0" y="158.5" /><rect fill="#AACCDD" height="12.0" rx="2" stroke="none" width="48.0" x="154.0" y="209.5" /><rect fill="#444444" height="14.0" rx="2" width="8.0" x="149.0" y="160.5" /><rect fill="#444444" height="14.0" rx="2" width="8.0" x="199.0" y="160.5" /><rect fill="#444444" height="14.0" rx="2" width="8.0" x="149.0" y="205.5" /><rect fill="#444444" height="14.0" rx="2" width="8.0" x="199.0" y="205.5" /><circle cx="292.0" cy="190.0" fill="#C8B898" r="11.0" stroke="#A09878" stroke-width="0.75" /><circle cx="324.0" cy="190.0" fill="#C8B898" r="11.0" stroke="#A09878" stroke-width="0.75" /><circle cx="308.0" cy="190.0" fill="#B8A880" r="7.0" stroke="#908860" stroke-width="0.75" /><rect fill="#D8D0C4" height="16.0" stroke="#B8B0A4" stroke-width="0.75" width="97.00000000000001" x="253.0" y="260.0" /><rect fill="#B8D8E0" height="10.0" stroke="#88A8B0" stroke-width="0.5" width="18.0" x="257.0" y="263.0" /><circle cx="328.0" cy="264.0" fill="#888888" r="3.5" stroke="#555555" stroke-width="0.5" /><circle cx="338.0" cy="264.0" fill="#888888" r="3.5" stroke="#555555" stroke-width="0.5" /><circle cx="328.0" cy="270.0" fill="#888888" r="3.5" stroke="#555555" stroke-width="0.5" /><circle cx="338.0" cy="270.0" fill="#888888" r="3.5" stroke="#555555" stroke-width="0.5" /><rect fill="#D8D0C4" height="81.00000000000001" stroke="#B8B0A4" stroke-width="0.75" width="16.0" x="334.0" y="276.0" /><rect fill="#D8EAEF" height="20.0" rx="4" stroke="#88AABB" stroke-width="0.5" width="16.5" x="320.0" y="455.0" /><rect fill="#C8E0E8" height="28.0" rx="2" stroke="#88AABB" stroke-width="0.5" width="30.0" x="320.0" y="417.0" /><rect fill="#8AAAC8" height="7.0" rx="2" width="55.0" x="283.1" y="422.0" /><rect fill="#C5D5E8" height="42.349999999999994" rx="3" stroke="#8AAAC8" stroke-width="0.75" width="55.0" x="283.1" y="429.0" /><ellipse cx="300.70000000000005" cy="434.0" fill="#FFFFFF" rx="8.8" ry="6.0" stroke="#AABBD0" stroke-width="0.5" /><ellipse cx="313.35" cy="434.0" fill="#FFFFFF" rx="8.8" ry="6.0" stroke="#AABBD0" stroke-width="0.5" /><rect fill="#C8B89A" height="15.0" stroke="#A89878" stroke-width="0.75" width="60.0" x="280.6" y="467.8" /><line stroke="#A89878" stroke-width="0.5" x1="300.6" x2="300.6" y1="467.8" y2="482.8" /><line stroke="#A89878" stroke-width="0.5" x1="320.6" x2="320.6" y1="467.8" y2="482.8" /><rect fill="#D8EAEF" height="20.0" rx="4" stroke="#88AABB" stroke-width="0.5" width="16.5" x="151.0" y="455.0" /><rect fill="#C8E0E8" height="28.0" rx="2" stroke="#88AABB" stroke-width="0.5" width="30.0" x="151.0" y="417.0" /><rect fill="#8AAAC8" height="7.0" rx="2" width="49.699999999999996" x="120.65" y="422.0" /><rect fill="#C5D5E8" height="42.349999999999994" rx="3" stroke="#8AAAC8" stroke-width="0.75" width="49.699999999999996" x="120.65" y="429.0" /><ellipse cx="136.554" cy="434.0" fill="#FFFFFF" rx="7.951999999999999" ry="6.0" stroke="#AABBD0" stroke-width="0.5" /><ellipse cx="147.985" cy="434.0" fill="#FFFFFF" rx="7.951999999999999" ry="6.0" stroke="#AABBD0" stroke-width="0.5" /><rect fill="#C8B89A" height="15.0" stroke="#A89878" stroke-width="0.75" width="60.0" x="115.5" y="467.8" /><line stroke="#A89878" stroke-width="0.5" x1="135.5" x2="135.5" y1="467.8" y2="482.8" /><line stroke="#A89878" stroke-width="0.5" x1="155.5" x2="155.5" y1="467.8" y2="482.8" /><rect fill="#8AAAC8" height="7.0" rx="2" width="30.119999999999983" x="211.04" y="422.0" /><rect fill="#C5D5E8" height="39.059999999999995" rx="3" stroke="#8AAAC8" stroke-width="0.75" width="30.119999999999983" x="211.04" y="429.0" /><rect fill="#C8B89A" height="12.0" stroke="#A89878" stroke-width="0.75" width="40.15999999999998" x="206.02" y="468.8" /></g><g id="layer_int_walls"><rect fill="#3A3A3A" height="120.0" width="4.0" x="254.0" y="128.0" /><rect fill="#3A3A3A" height="4.0" width="42.900000000000006" x="98.0" y="248.0" /><rect fill="#3A3A3A" height="4.0" width="35.75" x="140.9" y="248.0" /><rect fill="#3A3A3A" height="4.0" width="64.35" x="176.65" y="248.0" /><rect fill="#3A3A3A" height="4.0" width="13.0" x="241.0" y="248.0" /><rect fill="#3A3A3A" height="4.0" width="104.0" x="254.0" y="248.0" /><rect fill="#3A3A3A" height="52.64999999999998" width="4.0" x="140.9" y="248.0" /><rect fill="#3A3A3A" height="64.35000000000002" width="42.900000000000006" x="98.0" y="300.65" /><rect fill="#3A3A3A" height="4.0" width="42.900000000000006" x="98.0" y="365.0" /><rect fill="#3A3A3A" height="4.0" width="35.75" x="140.9" y="300.65" /><rect fill="#3A3A3A" height="52.64999999999998" width="4.0" x="176.65" y="248.0" /><rect fill="#3A3A3A" height="64.35000000000002" width="4.0" x="176.65" y="300.65" /><rect fill="#3A3A3A" height="4.0" width="78.65" x="98.0" y="365.0" /><rect fill="#3A3A3A" height="117.0" width="4.0" x="241.0" y="248.0" /><rect fill="#3A3A3A" height="4.0" width="64.35" x="176.65" y="365.0" /><rect fill="#3A3A3A" height="4.0" width="117.0" x="241.0" y="365.0" /><rect fill="#3A3A3A" height="4.0" width="50.0" x="308.0" y="405.0" /><rect fill="#3A3A3A" height="4.0" width="98.80000000000001" x="259.2" y="405.0" /><rect fill="#3A3A3A" height="4.0" width="50.0" x="139.0" y="405.0" /><rect fill="#3A3A3A" height="4.0" width="91.0" x="98.0" y="405.0" /><rect fill="#3A3A3A" height="4.0" width="70.19999999999999" x="189.0" y="405.0" /><rect fill="#3A3A3A" height="80.0" width="50.0" x="308.0" y="405.0" /><rect fill="#3A3A3A" height="85.80000000000001" width="4.0" x="259.2" y="405.0" /><rect fill="#3A3A3A" height="80.0" width="50.0" x="139.0" y="405.0" /><rect fill="#3A3A3A" height="80.0" width="4.0" x="189.0" y="405.0" /><rect fill="#3A3A3A" height="85.80000000000001" width="4.0" x="189.0" y="405.0" /><rect fill="#3A3A3A" height="4.0" width="45.5" x="98.0" y="490.8" /><rect fill="#3A3A3A" height="4.0" width="45.5" x="143.5" y="490.8" /><rect fill="#3A3A3A" height="57.19999999999999" width="4.0" x="143.5" y="490.8" /></g><g id="layer_ext_walls"><rect fill="#1E1E1E" height="7.5" width="275.0" x="92.5" y="122.5" /><rect fill="#1E1E1E" height="7.5" width="275.0" x="92.5" y="550.0" /><rect fill="#1E1E1E" height="420.0" width="7.5" x="92.5" y="130.0" /><rect fill="#1E1E1E" height="420.0" width="7.5" x="360.0" y="130.0" /></g><g id="layer_doors"><line stroke="#666666" stroke-width="1.5" x1="120.0" x2="120.0" y1="130.0" y2="170.0" /><path d="M120.0,170.0 A40.0,40.0 0 0 1 160.0,130.0" fill="none" stroke="#888888" stroke-dasharray="3,2" stroke-width="0.75" /><line stroke="#666666" stroke-width="1.5" x1="295.78" x2="295.78" y1="407.0" y2="437.0" /><path d="M295.8,437.0 A30.0,30.0 0 0 1 325.8,407.0" fill="none" stroke="#888888" stroke-dasharray="3,2" stroke-width="0.75" /><line stroke="#666666" stroke-width="1.5" x1="131.85" x2="131.85" y1="407.0" y2="437.0" /><path d="M131.8,437.0 A30.0,30.0 0 0 1 161.8,407.0" fill="none" stroke="#888888" stroke-dasharray="3,2" stroke-width="0.75" /><line stroke="#666666" stroke-width="1.5" x1="215.57" x2="215.57" y1="407.0" y2="437.0" /><path d="M215.6,437.0 A30.0,30.0 0 0 1 245.6,407.0" fill="none" stroke="#888888" stroke-dasharray="3,2" stroke-width="0.75" /><line stroke="#666666" stroke-width="1.5" x1="310.0" x2="330.0" y1="455.0" y2="455.0" /><path d="M330.0,455.0 A20.0,20.0 0 0 0 310.0,475.0" fill="none" stroke="#888888" stroke-dasharray="3,2" stroke-width="0.75" /><line stroke="#666666" stroke-width="1.5" x1="141.0" x2="161.0" y1="455.0" y2="455.0" /><path d="M161.0,455.0 A20.0,20.0 0 0 0 141.0,475.0" fill="none" stroke="#888888" stroke-dasharray="3,2" stroke-width="0.75" /><line stroke="#666666" stroke-width="1.5" x1="145.5" x2="165.5" y1="527.12" y2="527.12" /><path d="M165.5,527.1 A20.0,20.0 0 0 0 145.5,547.1" fill="none" stroke="#888888" stroke-dasharray="3,2" stroke-width="0.75" /><line stroke="#666666" stroke-width="1.5" x1="243.0" x2="268.0" y1="308.5" y2="308.5" /><path d="M268.0,308.5 A25.0,25.0 0 0 0 243.0,333.5" fill="none" stroke="#888888" stroke-dasharray="3,2" stroke-width="0.75" /></g><g id="layer_windows"><rect fill="#F5F0E8" height="15.0" stroke="none" width="38.0" x="159.0" y="122.5" /><line stroke="#446688" stroke-width="1.5" x1="159.0" x2="197.0" y1="128.0" y2="128.0" /><line stroke="#4488AA" stroke-dasharray="4,3" stroke-width="0.75" x1="159.0" x2="197.0" y1="130.0" y2="130.0" /><line stroke="#446688" stroke-width="1.5" x1="159.0" x2="197.0" y1="132.0" y2="132.0" /><rect fill="#F5F0E8" height="38.0" stroke="none" width="15.0" x="92.5" y="171.0" /><line stroke="#446688" stroke-width="1.5" x1="98.0" x2="98.0" y1="171.0" y2="209.0" /><line stroke="#4488AA" stroke-width="0.75" x1="100.0" x2="100.0" y1="171.0" y2="209.0" /><line stroke="#446688" stroke-width="1.5" x1="102.0" x2="102.0" y1="171.0" y2="209.0" /><rect fill="#F5F0E8" height="15.0" stroke="none" width="38.0" x="289.0" y="122.5" /><line stroke="#446688" stroke-width="1.5" x1="289.0" x2="327.0" y1="128.0" y2="128.0" /><line stroke="#4488AA" stroke-dasharray="4,3" stroke-width="0.75" x1="289.0" x2="327.0" y1="130.0" y2="130.0" /><line stroke="#446688" stroke-width="1.5" x1="289.0" x2="327.0" y1="132.0" y2="132.0" /><rect fill="#F5F0E8" height="38.0" stroke="none" width="15.0" x="352.5" y="171.0" /><line stroke="#446688" stroke-width="1.5" x1="358.0" x2="358.0" y1="171.0" y2="209.0" /><line stroke="#4488AA" stroke-width="0.75" x1="360.0" x2="360.0" y1="171.0" y2="209.0" /><line stroke="#446688" stroke-width="1.5" x1="362.0" x2="362.0" y1="171.0" y2="209.0" /><rect fill="#F5F0E8" height="38.0" stroke="none" width="15.0" x="92.5" y="289.5" /><line stroke="#446688" stroke-width="1.5" x1="98.0" x2="98.0" y1="289.5" y2="327.5" /><line stroke="#4488AA" stroke-width="0.75" x1="100.0" x2="100.0" y1="289.5" y2="327.5" /><line stroke="#446688" stroke-width="1.5" x1="102.0" x2="102.0" y1="289.5" y2="327.5" /><rect fill="#F5F0E8" height="38.0" stroke="none" width="15.0" x="92.5" y="315.825" /><line stroke="#446688" stroke-width="1.5" x1="98.0" x2="98.0" y1="315.825" y2="353.825" /><line stroke="#4488AA" stroke-width="0.75" x1="100.0" x2="100.0" y1="315.825" y2="353.825" /><line stroke="#446688" stroke-width="1.5" x1="102.0" x2="102.0" y1="315.825" y2="353.825" /><rect fill="#F5F0E8" height="38.0" stroke="none" width="15.0" x="352.5" y="289.5" /><line stroke="#446688" stroke-width="1.5" x1="358.0" x2="358.0" y1="289.5" y2="327.5" /><line stroke="#4488AA" stroke-width="0.75" x1="360.0" x2="360.0" y1="289.5" y2="327.5" /><line stroke="#446688" stroke-width="1.5" x1="362.0" x2="362.0" y1="289.5" y2="327.5" /><rect fill="#F5F0E8" height="38.0" stroke="none" width="15.0" x="352.5" y="428.0" /><line stroke="#446688" stroke-width="1.5" x1="358.0" x2="358.0" y1="428.0" y2="466.0" /><line stroke="#4488AA" stroke-width="0.75" x1="360.0" x2="360.0" y1="428.0" y2="466.0" /><line stroke="#446688" stroke-width="1.5" x1="362.0" x2="362.0" y1="428.0" y2="466.0" /><rect fill="#F5F0E8" height="38.0" stroke="none" width="15.0" x="352.5" y="430.9" /><line stroke="#446688" stroke-width="1.5" x1="358.0" x2="358.0" y1="430.9" y2="468.9" /><line stroke="#4488AA" stroke-width="0.75" x1="360.0" x2="360.0" y1="430.9" y2="468.9" /><line stroke="#446688" stroke-width="1.5" x1="362.0" x2="362.0" y1="430.9" y2="468.9" /><rect fill="#F5F0E8" height="38.0" stroke="none" width="15.0" x="92.5" y="430.9" /><line stroke="#446688" stroke-width="1.5" x1="98.0" x2="98.0" y1="430.9" y2="468.9" /><line stroke="#4488AA" stroke-width="0.75" x1="100.0" x2="100.0" y1="430.9" y2="468.9" /><line stroke="#446688" stroke-width="1.5" x1="102.0" x2="102.0" y1="430.9" y2="468.9" /><rect fill="#F5F0E8" height="15.0" stroke="none" width="38.0" x="149.25" y="542.5" /><line stroke="#446688" stroke-width="1.5" x1="149.25" x2="187.25" y1="548.0" y2="548.0" /><line stroke="#4488AA" stroke-dasharray="4,3" stroke-width="0.75" x1="149.25" x2="187.25" y1="550.0" y2="550.0" /><line stroke="#446688" stroke-width="1.5" x1="149.25" x2="187.25" y1="552.0" y2="552.0" /></g><g id="layer_labels"><text dominant-baseline="middle" fill="#1A1A1A" font-family="Arial, Helvetica, sans-serif" font-size="10.0" font-weight="700" letter-spacing="0.3" text-anchor="middle" x="178.0" y="185.0">CAR PORCH</text><text dominant-baseline="middle" fill="#666666" font-family="Arial, Helvetica, sans-serif" font-size="8.0" font-style="italic" text-anchor="middle" x="178.0" y="198.0">16' × 12'  •  187 sqft</text><text dominant-baseline="middle" fill="#1A1A1A" font-family="Arial, Helvetica, sans-serif" font-size="10.0" font-weight="700" letter-spacing="0.3" text-anchor="middle" x="308.0" y="185.0">SIT OUT</text><text dominant-baseline="middle" fill="#666666" font-family="Arial, Helvetica, sans-serif" font-size="8.0" font-style="italic" text-anchor="middle" x="308.0" y="198.0">10' × 12'  •  125 sqft</text><text dominant-baseline="middle" fill="#1A1A1A" font-family="Arial, Helvetica, sans-serif" font-size="6.0" font-weight="700" text-anchor="middle" x="121.45" y="308.5">POOJA ROOM</text><text dominant-baseline="middle" fill="#1A1A1A" font-family="Arial, Helvetica, sans-serif" font-size="6.0" font-weight="700" text-anchor="middle" x="160.775" y="276.325">UTILITY</text><text dominant-baseline="middle" fill="#1A1A1A" font-family="Arial, Helvetica, sans-serif" font-size="8.738888888888889" font-weight="700" letter-spacing="0.3" text-anchor="middle" x="139.325" y="329.825">LIVING ROOM</text><text dominant-baseline="middle" fill="#666666" font-family="Arial, Helvetica, sans-serif" font-size="6.554166666666667" font-style="italic" text-anchor="middle" x="139.325" y="342.825">8' × 6'  •  51 sqft</text><text dominant-baseline="middle" fill="#1A1A1A" font-family="Arial, Helvetica, sans-serif" font-size="7.150000000000001" font-weight="700" letter-spacing="0.3" text-anchor="middle" x="210.82500000000002" y="303.5">DINING ROOM</text><text dominant-baseline="middle" fill="#666666" font-family="Arial, Helvetica, sans-serif" font-size="5.5" font-style="italic" text-anchor="middle" x="210.82500000000002" y="316.5">6' × 12'  •  75 sqft</text><text dominant-baseline="middle" fill="#1A1A1A" font-family="Arial, Helvetica, sans-serif" font-size="10.0" font-weight="700" letter-spacing="0.3" text-anchor="middle" x="301.5" y="303.5">KITCHEN</text><text dominant-baseline="middle" fill="#666666" font-family="Arial, Helvetica, sans-serif" font-size="8.0" font-style="italic" text-anchor="middle" x="301.5" y="316.5">12' × 12'  •  137 sqft</text><text dominant-baseline="middle" fill="#1A1A1A" font-family="Arial, Helvetica, sans-serif" font-size="10.0" font-weight="700" letter-spacing="0.3" text-anchor="middle" x="230.0" y="382.0">CORRIDOR</text><text dominant-baseline="middle" fill="#666666" font-family="Arial, Helvetica, sans-serif" font-size="8.0" font-style="italic" text-anchor="middle" x="230.0" y="395.0">26' × 4'  •  104 sqft</text><text dominant-baseline="middle" fill="#1A1A1A" font-family="Arial, Helvetica, sans-serif" font-size="6.0" font-weight="700" text-anchor="middle" x="335.0" y="447.0">BATH</text><text dominant-baseline="middle" fill="#1A1A1A" font-family="Arial, Helvetica, sans-serif" font-size="10.0" font-weight="700" letter-spacing="0.3" text-anchor="middle" x="310.6" y="444.9">MASTER BEDROOM</text><text dominant-baseline="middle" fill="#666666" font-family="Arial, Helvetica, sans-serif" font-size="8.0" font-style="italic" text-anchor="middle" x="310.6" y="457.9">10' × 9'  •  85 sqft</text><text dominant-baseline="middle" fill="#1A1A1A" font-family="Arial, Helvetica, sans-serif" font-size="6.0" font-weight="700" text-anchor="middle" x="166.0" y="447.0">BATH</text><text dominant-baseline="middle" fill="#1A1A1A" font-family="Arial, Helvetica, sans-serif" font-size="10.0" font-weight="700" letter-spacing="0.3" text-anchor="middle" x="145.5" y="444.9">PARENTS BEDROOM</text><text dominant-baseline="middle" fill="#666666" font-family="Arial, Helvetica, sans-serif" font-size="7.583333333333333" font-style="italic" text-anchor="middle" x="145.5" y="457.9">9' × 9'  •  78 sqft</text><text dominant-baseline="middle" fill="#1A1A1A" font-family="Arial, Helvetica, sans-serif" font-size="7.799999999999997" font-weight="700" letter-spacing="0.3" text-anchor="middle" x="226.1" y="444.9">GUEST ROOM</text><text dominant-baseline="middle" fill="#666666" font-family="Arial, Helvetica, sans-serif" font-size="5.849999999999998" font-style="italic" text-anchor="middle" x="226.1" y="457.9">7' × 9'  •  60 sqft</text><text dominant-baseline="middle" fill="#1A1A1A" font-family="Arial, Helvetica, sans-serif" font-size="6.0" font-weight="700" text-anchor="middle" x="122.75" y="521.4">STORE</text><text dominant-baseline="middle" fill="#1A1A1A" font-family="Arial, Helvetica, sans-serif" font-size="6.0" font-weight="700" text-anchor="middle" x="168.25" y="521.4">COMMON BATH</text></g><g id="layer_dims"><line stroke="#777777" stroke-width="0.75" x1="80.0" x2="380.0" y1="60.0" y2="60.0" /><line stroke="#777777" stroke-width="1.0" x1="80.0" x2="80.0" y1="55.0" y2="65.0" /><line stroke="#777777" stroke-width="1.0" x1="380.0" x2="380.0" y1="55.0" y2="65.0" /><text fill="#555555" font-family="Arial, Helvetica, sans-serif" font-size="8.0" text-anchor="middle" x="230.0" y="56.0">30'-0"</text><line stroke="#777777" stroke-width="0.75" x1="60.0" x2="60.0" y1="80.0" y2="580.0" /><line stroke="#777777" stroke-width="1.0" x1="55.0" x2="65.0" y1="80.0" y2="80.0" /><line stroke="#777777" stroke-width="1.0" x1="55.0" x2="65.0" y1="580.0" y2="580.0" /><text dominant-baseline="middle" fill="#555555" font-family="Arial, Helvetica, sans-serif" font-size="8.0" text-anchor="middle" transform="rotate(-90, 52.0, 330.0)" x="52.0" y="330.0">50'-0"</text><line stroke="#777777" stroke-width="0.75" x1="100.0" x2="360.0" y1="118.0" y2="118.0" /><line stroke="#777777" stroke-width="1.0" x1="100.0" x2="100.0" y1="113.0" y2="123.0" /><line stroke="#777777" stroke-width="1.0" x1="360.0" x2="360.0" y1="113.0" y2="123.0" /><text fill="#555555" font-family="Arial, Helvetica, sans-serif" font-size="8.0" text-anchor="middle" x="230.0" y="114.0">26'-0"</text><line stroke="#777777" stroke-width="0.75" x1="88.0" x2="88.0" y1="130.0" y2="250.0" /><line stroke="#777777" stroke-width="1.0" x1="83.0" x2="93.0" y1="130.0" y2="130.0" /><line stroke="#777777" stroke-width="1.0" x1="83.0" x2="93.0" y1="250.0" y2="250.0" /><text dominant-baseline="middle" fill="#555555" font-family="Arial, Helvetica, sans-serif" font-size="8.0" text-anchor="middle" transform="rotate(-90, 80.0, 190.0)" x="80.0" y="190.0">12'-0"</text><line stroke="#777777" stroke-width="0.75" x1="88.0" x2="88.0" y1="407.0" y2="550.0" /><line stroke="#777777" stroke-width="1.0" x1="83.0" x2="93.0" y1="407.0" y2="407.0" /><line stroke="#777777" stroke-width="1.0" x1="83.0" x2="93.0" y1="550.0" y2="550.0" /><text dominant-baseline="middle" fill="#555555" font-family="Arial, Helvetica, sans-serif" font-size="8.0" text-anchor="middle" transform="rotate(-90, 80.0, 478.5)" x="80.0" y="478.5">14'-0"</text></g><g id="layer_compass"><circle cx="388.5" cy="71.5" fill="white" r="27.5" stroke="#888888" stroke-width="1.0" /><polygon fill="#1A1A1A" points="388.5,47.5 382.5,65.5 394.5,65.5" /><polygon fill="white" points="388.5,95.5 382.5,77.5 394.5,77.5" stroke="#1A1A1A" stroke-width="1.0" /><circle cx="388.5" cy="71.5" fill="#333333" r="4.0" /><text dominant-baseline="middle" fill="#1A1A1A" font-family="Arial, Helvetica, sans-serif" font-size="10.0" font-weight="bold" text-anchor="middle" x="388.5" y="42.5">N</text><text dominant-baseline="middle" fill="#1A1A1A" font-family="Arial, Helvetica, sans-serif" font-size="10.0" font-weight="bold" text-anchor="middle" x="388.5" y="103.5">S</text><text dominant-baseline="middle" fill="#1A1A1A" font-family="Arial, Helvetica, sans-serif" font-size="10.0" font-weight="bold" text-anchor="middle" x="419.5" y="74.5">E</text><text dominant-baseline="middle" fill="#1A1A1A" font-family="Arial, Helvetica, sans-serif" font-size="10.0" font-weight="bold" text-anchor="middle" x="357.5" y="74.5">W</text></g><g id="layer_title"><rect fill="#FFFFFF" height="65.0" stroke="#333333" stroke-width="1.5" width="460.0" x="0.0" y="660.0" /><line stroke="#CCCCCC" stroke-width="0.75" x1="161.0" x2="161.0" y1="660.0" y2="725.0" /><line stroke="#CCCCCC" stroke-width="0.75" x1="312.8" x2="312.8" y1="660.0" y2="725.0" /><text dominant-baseline="middle" fill="#111111" font-family="Arial, Helvetica, sans-serif" font-size="11.0" font-weight="700" x="14.0" y="682.5">RESIDENTIAL FLOOR PLAN</text><text dominant-baseline="middle" fill="#555555" font-family="Arial, Helvetica, sans-serif" font-size="7.5" x="14.0" y="702.5">3BHK  ·  1 STOREY  ·  MODERN</text><text dominant-baseline="middle" fill="#222222" font-family="Arial, Helvetica, sans-serif" font-size="9.0" font-weight="600" text-anchor="middle" x="236.9" y="682.5">Plot 30'-0" × 50'-0"</text><text dominant-baseline="middle" fill="#555555" font-family="Arial, Helvetica, sans-serif" font-size="7.5" text-anchor="middle" x="236.9" y="700.5">Built-up: 900 sq ft  |  Scale 1:100</text><rect fill="#E8F5E9" height="20.0" rx="4.0" stroke="#4CAF50" stroke-width="1.0" width="110.0" x="331.4" y="670.5" /><text dominant-baseline="middle" fill="#2E7D32" font-family="Arial, Helvetica, sans-serif" font-size="8.0" font-weight="600" text-anchor="middle" x="386.4" y="680.5">✓ VASTU COMPLIANT</text><text dominant-baseline="middle" fill="#444444" font-family="Arial, Helvetica, sans-serif" font-size="8.0" text-anchor="middle" x="386.4" y="702.5">Budget: ₹55 Lakhs</text></g></svg>