  0
SECTION
  2
HEADER
  9
$ACADVER
  1
AC1024
  9
$ACADMAINTVER
 70
6
  9
$DWGCODEPAGE
  3
ANSI_1252
  9
$LASTSAVEDBY
  1
ezdxf
  9
$INSBASE
 10
0.0
 20
0.0
 30
0.0
  9
$EXTMIN
 10
1e+20
 20
1e+20
 30
1e+20
  9
$EXTMAX
 10
-1e+20
 20
-1e+20
 30
-1e+20
  9
$LIMMIN
 10
0.0
 20
0.0
  9
$LIMMAX
 10
420.0
 20
297.0
  9
$ORTHOMODE
 70
0
  9
$REGENMODE
 70
1
  9
$FILLMODE
 70
1
  9
$QTEXTMODE
 70
0
  9
$MIRRTEXT
 70
1
  9
$LTSCALE
 40
1.0
  9
$ATTMODE
 70
1
  9
$TEXTSIZE
 40
2.5
  9
$TRACEWID
 40
1.0
  9
$TEXTSTYLE
  7
Standard
  9
$CLAYER
  8
0
  9
$CELTYPE
  6
ByLayer
  9
$CECOLOR
 62
256
  9
$CELTSCALE
 40
1.0
  9
$DISPSILH
 70
0
  9
$DIMSCALE
 40
1.0
  9
$DIMASZ
 40
2.5
  9
$DIMEXO
 40
0.625
  9
$DIMDLI
 40
3.75
  9
$DIMRND
 40
0.0
  9
$DIMDLE
 40
0.0
  9
$DIMEXE
 40
1.25
  9
$DIMTP
 40
0.0
  9
$DIMTM
 40
0.0
  9
$DIMTXT
 40
2.5
  9
$DIMCEN
 40
2.5
  9
$DIMTSZ
 40
0.0
  9
$DIMTOL
 70
0
  9
$DIMLIM
 70
0
  9
$DIMTIH
 70
0
  9
$DIMTOH
 70
0
  9
$DIMSE1
 70
0
  9
$DIMSE2
 70
0
  9
$DIMTAD
 70
1
  9
$DIMZIN
 70
8
  9
$DIMBLK
  1

  9
$DIMASO
 70
1
  9
$DIMSHO
 70
1
  9
$DIMPOST
  1

  9
$DIMAPOST
  1

  9
$DIMALT
 70
0
  9
$DIMALTD
 70
3
  9
$DIMALTF
 40
0.03937007874
  9
$DIMLFAC
 40
1.0
  9
$DIMTOFL
 70
1
  9
$DIMTVP
 40
0.0
  9
$DIMTIX
 70
0
  9
$DIMSOXD
 70
0
  9
$DIMSAH
 70
0
  9
$DIMBLK1
  1

  9
$DIMBLK2
  1

  9
$DIMSTYLE
  2
ISO-25
  9
$DIMCLRD
 70
0
  9
$DIMCLRE
 70
0
  9
$DIMCLRT
 70
0
  9
$DIMTFAC
 40
1.0
  9
$DIMGAP
 40
0.625
  9
$DIMJUST
 70
0
  9
$DIMSD1
 70
0
  9
$DIMSD2
 70
0
  9
$DIMTOLJ
 70
0
  9
$DIMTZIN
 70
8
  9
$DIMALTZ
 70
0
  9
$DIMALTTZ
 70
0
  9
$DIMUPT
 70
0
  9
$DIMDEC
 70
2
  9
$DIMTDEC
 70
2
  9
$DIMALTU
 70
2
  9
$DIMALTTD
 70
3
  9
$DIMTXSTY
  7
Standard
  9
$DIMAUNIT
 70
0
  9
$DIMADEC
 70
0
  9
$DIMALTRND
 40
0.0
  9
$DIMAZIN
 70
0
  9
$DIMDSEP
 70
44
  9
$DIMATFIT
 70
3
  9
$DIMFRAC
 70
0
  9
$DIMLDRBLK
  1

  9
$DIMLUNIT
 70
2
  9
$DIMLWD
 70
-2
  9
$DIMLWE
 70
-2
  9
$DIMTMOVE
 70
0
  9
$DIMFXL
 40
1.0
  9
$DIMFXLON
 70
0
  9
$DIMJOGANG
 40
0.785398163397
  9
$DIMTFILL
 70
0
  9
$DIMTFILLCLR
 70
0
  9
$DIMARCSYM
 70
0
  9
$DIMLTYPE
  6

  9
$DIMLTEX1
  6

  9
$DIMLTEX2
  6

  9
$DIMTXTDIRECTION
 70
0
  9
$LUNITS
 70
2
  9
$LUPREC
 70
4
  9
$SKETCHINC
 40
1.0
  9
$FILLETRAD
 40
10.0
  9
$AUNITS
 70
0
  9
$AUPREC
 70
2
  9
$MENU
  1
.
  9
$ELEVATION
 40
0.0
  9
$PELEVATION
 40
0.0
  9
$THICKNESS
 40
0.0
  9
$LIMCHECK
 70
0
  9
$CHAMFERA
 40
0.0
  9
$CHAMFERB
 40
0.0
  9
$CHAMFERC
 40
0.0
  9
$CHAMFERD
 40
0.0
  9
$SKPOLY
 70
0
  9
$TDCREATE
 40
2461118.0666087964
  9
$TDUCREATE
 40
2458532.153996898
  9
$TDUPDATE
 40
2461118.0666087964
  9
$TDUUPDATE
 40
2458532.1544311
  9
$TDINDWG
 40
0.0
  9
$TDUSRTIMER
 40
0.0
  9
$USRTIMER
 70
1
  9
$ANGBASE
 50
0.0
  9
$ANGDIR
 70
0
  9
$PDMODE
 70
0
  9
$PDSIZE
 40
0.0
  9
$PLINEWID
 40
0.0
  9
$SPLFRAME
 70
0
  9
$SPLINETYPE
 70
6
  9
$SPLINESEGS
 70
8
  9
$HANDSEED
  5
105
  9
$SURFTAB1
 70
6
  9
$SURFTAB2
 70
6
  9
$SURFTYPE
 70
6
  9
$SURFU
 70
6
  9
$SURFV
 70
6
  9
$UCSBASE
  2

  9
$UCSNAME
  2

  9
$UCSORG
 10
0.0
 20
0.0
 30
0.0
  9
$UCSXDIR
 10
1.0
 20
0.0
 30
0.0
  9
$UCSYDIR
 10
0.0
 20
1.0
 30
0.0
  9
$UCSORTHOREF
  2

  9
$UCSORTHOVIEW
 70
0
  9
$UCSORGTOP
 10
0.0
 20
0.0
 30
0.0
  9
$UCSORGBOTTOM
 10
0.0
 20
0.0
 30
0.0
  9
$UCSORGLEFT
 10
0.0
 20
0.0
 30
0.0
  9
$UCSORGRIGHT
 10
0.0
 20
0.0
 30
0.0
  9
$UCSORGFRONT
 10
0.0
 20
0.0
 30
0.0
  9
$UCSORGBACK
 10
0.0
 20
0.0
 30
0.0
  9
$PUCSBASE
  2

  9
$PUCSNAME
  2

  9
$PUCSORG
 10
0.0
 20
0.0
 30
0.0
  9
$PUCSXDIR
 10
1.0
 20
0.0
 30
0.0
  9
$PUCSYDIR
 10
0.0
 20
1.0
 30
0.0
  9
$PUCSORTHOREF
  2

  9
$PUCSORTHOVIEW
 70
0
  9
$PUCSORGTOP
 10
0.0
 20
0.0
 30
0.0
  9
$PUCSORGBOTTOM
 10
0.0
 20
0.0
 30
0.0
  9
$PUCSORGLEFT
 10
0.0
 20
0.0
 30
0.0
  9
$PUCSORGRIGHT
 10
0.0
 20
0.0
 30
0.0
  9
$PUCSORGFRONT
 10
0.0
 20
0.0
 30
0.0
  9
$PUCSORGBACK
 10
0.0
 20
0.0
 30
0.0
  9
$USERI1
 70
0
  9
$USERI2
 70
0
  9
$USERI3
 70
0
  9
$USERI4
 70
0
  9
$USERI5
 70
0
  9
$USERR1
 40
0.0
  9
$USERR2
 40
0.0
  9
$USERR3
 40
0.0
  9
$USERR4
 40
0.0
  9
$USERR5
 40
0.0
  9
$WORLDVIEW
 70
1
  9
$SHADEDGE
 70
3
  9
$SHADEDIF
 70
70
  9
$TILEMODE
 70
1
  9
$MAXACTVP
 70
64
  9
$PINSBASE
 10
0.0
 20
0.0
 30
0.0
  9
$PLIMCHECK
 70
0
  9
$PEXTMIN
 10
1e+20
 20
1e+20
 30
1e+20
  9
$PEXTMAX
 10
-1e+20
 20
-1e+20
 30
-1e+20
  9
$PLIMMIN
 10
0.0
 20
0.0
  9
$PLIMMAX
 10
420.0
 20
297.0
  9
$UNITMODE
 70
0
  9
$VISRETAIN
 70
1
  9
$PLINEGEN
 70
0
  9
$PSLTSCALE
 70
1
  9
$TREEDEPTH
 70
3020
  9
$CMLSTYLE
  2
Standard
  9
$CMLJUST
 70
0
  9
$CMLSCALE
 40
20.0
  9
$PROXYGRAPHICS
 70
1
  9
$MEASUREMENT
 70
1
  9
$CELWEIGHT
370
-1
  9
$ENDCAPS
280
0
  9
$JOINSTYLE
280
0
  9
$LWDISPLAY
290
0
  9
$INSUNITS
 70
4
  9
$HYPERLINKBASE
  1

  9
$STYLESHEET
  1

  9
$XEDIT
290
1
  9
$CEPSNTYPE
380
0
  9
$PSTYLEMODE
290
1
  9
$FINGERPRINTGUID
  2
{38B73961-460B-4460-AD6D-EAED509F1BCF}
  9
$VERSIONGUID
  2
{DF8B2153-89F0-4393-A783-8B97DF888AB2}
  9
$EXTNAMES
290
1
  9
$PSVPSCALE
 40
0.0
  9
$OLESTARTUP
290
0
  9
$SORTENTS
280
127
  9
$INDEXCTL
280
0
  9
$HIDETEXT
280
1
  9
$XCLIPFRAME
280
1
  9
$HALOGAP
280
0
  9
$OBSCOLOR
 70
257
  9
$OBSLTYPE
280
0
  9
$INTERSECTIONDISPLAY
280
0
  9
$INTERSECTIONCOLOR
 70
257
  9
$DIMASSOC
280
2
  9
$PROJECTNAME
  1

  9
$CAMERADISPLAY
290
0
  9
$LENSLENGTH
 40
50.0
  9
$CAMERAHEIGHT
 40
0.0
  9
$STEPSPERSEC
 40
24.0
  9
$STEPSIZE
 40
100.0
  9
$3DDWFPREC
 40
2.0
  9
$PSOLWIDTH
 40
0.005
  9
$PSOLHEIGHT
 40
0.08
  9
$LOFTANG1
 40
1.570796326795
  9
$LOFTANG2
 40
1.570796326795
  9
$LOFTMAG1
 40
0.0
  9
$LOFTMAG2
 40
0.0
  9
$LOFTPARAM
 70
7
  9
$LOFTNORMALS
280
1
  9
$LATITUDE
 40
37.795
  9
$LONGITUDE
 40
-122.394
  9
$NORTHDIRECTION
 40
0.0
  9
$TIMEZONE
 70
-8000
  9
$LIGHTGLYPHDISPLAY
280
1
  9
$TILEMODELIGHTSYNCH
280
1
  9
$CMATERIAL
347
20
  9
$SOLIDHIST
280
0
  9
$SHOWHIST
280
1
  9
$DWFFRAME
280
2
  9
$DGNFRAME
280
2
  9
$REALWORLDSCALE
290
1
  9
$INTERFERECOLOR
 62
256
  9
$CSHADOW
280
0
  9
$SHADOWPLANELOCATION
 40
0.0
  0
ENDSEC
  0
SECTION
  2
CLASSES
  0
CLASS
  1
ACDBDICTIONARYWDFLT
  2
AcDbDictionaryWithDefault
  3
ObjectDBX Classes
 90
0
 91
0
280
0
281
0
  0
CLASS
  1
SUN
  2
AcDbSun
  3
SCENEOE
 90
1153
 91
0
280
0
281
0
  0
CLASS
  1
VISUALSTYLE
  2
AcDbVisualStyle
  3
ObjectDBX Classes
 90
4095
 91
0
280
0
281
0
  0
CLASS
  1
MATERIAL
  2
AcDbMaterial
  3
ObjectDBX Classes
 90
1153
 91
0
280
0
281
0
  0
CLASS
  1
SCALE
  2
AcDbScale
  3
ObjectDBX Classes
 90
1153
 91
0
280
0
281
0
  0
CLASS
  1
TABLESTYLE
  2
AcDbTableStyle
  3
ObjectDBX Classes
 90
4095
 91
0
280
0
281
0
  0
CLASS
  1
MLEADERSTYLE
  2
AcDbMLeaderStyle
  3
ACDB_MLEADERSTYLE_CLASS
 90
4095
 91
0
280
0
281
0
  0
CLASS
  1
DICTIONARYVAR
  2
AcDbDictionaryVar
  3
ObjectDBX Classes
 90
0
 91
0
280
0
281
0
  0
CLASS
  1
CELLSTYLEMAP
  2
AcDbCellStyleMap
  3
ObjectDBX Classes
 90
1152
 91
0
280
0
281
0
  0
CLASS
  1
MENTALRAYRENDERSETTINGS
  2
AcDbMentalRayRenderSettings
  3
SCENEOE
 90
1024
 91
0
280
0
281
0
  0
CLASS
  1
ACDBDETAILVIEWSTYLE
  2
AcDbDetailViewStyle
  3
ObjectDBX Classes
 90
1025
 91
0
280
0
281
0
  0
CLASS
  1
ACDBSECTIONVIEWSTYLE
  2
AcDbSectionViewStyle
  3
ObjectDBX Classes
 90
1025
 91
0
280
0
281
0
  0
CLASS
  1
RASTERVARIABLES
  2
AcDbRasterVariables
  3
ISM
 90
0
 91
0
280
0
281
0
  0
CLASS
  1
LAYOUT
  2
AcDbLayout
  3
ObjectDBX Classes
 90
0
 91
0
280
0
281
0
  0
CLASS
  1
ACDBPLACEHOLDER
  2
AcDbPlaceHolder
  3
ObjectDBX Classes
 90
0
 91
0
280
0
281
0
  0
ENDSEC
  0
SECTION
  2
TABLES
  0
TABLE
  2
VPORT
  5
8
330
0
100
AcDbSymbolTable
 70
1
  0
VPORT
  5
23
330
8
100
AcDbSymbolTableRecord
100
AcDbViewportTableRecord
  2
*Active
 70
0
 10
0.0
 20
0.0
 11
1.0
 21
1.0
 12
0.0
 22
0.0
 13
0.0
 23
0.0
 14
0.5
 24
0.5
 15
0.5
 25
0.5
 16
0.0
 26
0.0
 36
1.0
 17
0.0
 27
0.0
 37
0.0
 40
1000.0
 41
1.34
 42
50.0
 43
0.0
 44
0.0
 50
0.0
 51
0.0
 71
0
 72
1000
 73
1
 74
3
 75
0
 76
0
 77
0
 78
0
281
0
 65
0
146
0.0
  0
ENDTAB
  0
TABLE
  2
LTYPE
  5
2
330
0
100
AcDbSymbolTable
 70
3
  0
LTYPE
  5
24
330
2
100
AcDbSymbolTableRecord
100
AcDbLinetypeTableRecord
  2
ByBlock
 70
0
  3

 72
65
 73
0
 40
0.0
  0
LTYPE
  5
25
330
2
100
AcDbSymbolTableRecord
100
AcDbLinetypeTableRecord
  2
ByLayer
 70
0
  3

 72
65
 73
0
 40
0.0
  0
LTYPE
  5
26
330
2
100
AcDbSymbolTableRecord
100
AcDbLinetypeTableRecord
  2
Continuous
 70
0
  3

 72
65
 73
0
 40
0.0
  0
ENDTAB
  0
TABLE
  2
LAYER
  5
1
330
0
100
AcDbSymbolTable
 70
11
  0
LAYER
  5
27
330
1
100
AcDbSymbolTableRecord
100
AcDbLayerTableRecord
  2
0
 70
0
 62
7
  6
Continuous
370
-3
390
13
347
21
  0
LAYER
  5
28
330
1
100
AcDbSymbolTableRecord
100
AcDbLayerTableRecord
  2
Defpoints
 70
0
 62
7
  6
Continuous
290
0
370
-3
390
13
347
21
  0
LAYER
  5
2F
330
1
100
AcDbSymbolTableRecord
100
AcDbLayerTableRecord
  2
A-BORDER
 70
0
 62
8
  6
Continuous
370
13
390
13
347
21
  0
LAYER
  5
30
330
1
100
AcDbSymbolTableRecord
100
AcDbLayerTableRecord
  2
A-WALL
 70
0
 62
7
  6
Continuous
370
50
390
13
347
21
  0
LAYER
  5
31
330
1
100
AcDbSymbolTableRecord
100
AcDbLayerTableRecord
  2
A-WALL-INT
 70
0
 62
8
  6
Continuous
370
25
390
13
347
21
  0
LAYER
  5
32
330
1
100
AcDbSymbolTableRecord
100
AcDbLayerTableRecord
  2
A-ROOM
 70
0
 62
8
  6
Continuous
370
9
390
13
347
21
  0
LAYER
  5
33
330
1
100
AcDbSymbolTableRecord
100
AcDbLayerTableRecord
  2
A-TEXT
 70
0
 62
7
  6
Continuous
370
13
390
13
347
21
  0
LAYER
  5
34
330
1
100
AcDbSymbolTableRecord
100
AcDbLayerTableRecord
  2
A-DIMS
 70
0
 62
8
  6
Continuous
370
13
390
13
347
21
  0
LAYER
  5
35
330
1
100
AcDbSymbolTableRecord
100
AcDbLayerTableRecord
  2
A-SYMB
 70
0
 62
8
  6
Continuous
370
18
390
13
347
21
  0
LAYER
  5
36
330
1
100
AcDbSymbolTableRecord
100
AcDbLayerTableRecord
  2
A-COMP
 70
0
 62
7
  6
Continuous
370
25
390
13
347
21
  0
LAYER
  5
37
330
1
100
AcDbSymbolTableRecord
100
AcDbLayerTableRecord
  2
A-TITLE
 70
0
 62
7
  6
Continuous
370
35
390
13
347
21
  0
ENDTAB
  0
TABLE
  2
STYLE
  5
5
330
0
100
AcDbSymbolTable
 70
1
  0
STYLE
  5
29
330
5
100
AcDbSymbolTableRecord
100
AcDbTextStyleTableRecord
  2
Standard
 70
0
 40
0.0
 41
1.0
 50
0.0
 71
0
 42
2.5
  3
txt
  4

  0
ENDTAB
  0
TABLE
  2
VIEW
  5
7
330
0
100
AcDbSymbolTable
 70
0
  0
ENDTAB
  0
TABLE
  2
UCS
  5
6
330
0
100
AcDbSymbolTable
 70
0
  0
ENDTAB
  0
TABLE
  2
APPID
  5
3
330
0
100
AcDbSymbolTable
 70
3
  0
APPID
  5
2A
330
3
100
AcDbSymbolTableRecord
100
AcDbRegAppTableRecord
  2
ACAD
 70
0
  0
APPID
  5
102
330
3
100
AcDbSymbolTableRecord
100
AcDbRegAppTableRecord
  2
HATCHBACKGROUNDCOLOR
 70
0
  0
APPID
  5
103
330
3
100
AcDbSymbolTableRecord
100
AcDbRegAppTableRecord
  2
EZDXF
 70
0
  0
ENDTAB
  0
TABLE
  2
DIMSTYLE
  5
4
330
0
100
AcDbSymbolTable
 70
1
100
AcDbDimStyleTable
  0
DIMSTYLE
105
2B
330
4
100
AcDbSymbolTableRecord
100
AcDbDimStyleTableRecord
  2
Standard
 70
0
 40
1.0
 41
2.5
 42
0.625
 43
3.75
 44
1.25
 45
0.0
 46
0.0
 47
0.0
 48
0.0
 49
2.5
140
2.5
141
2.5
142
0.0
143
0.03937007874
144
1.0
145
0.0
146
1.0
147
0.625
148
0.0
 69
0
 70
0
 71
0
 72
0
 73
0
 74
0
 75
0
 76
0
 77
1
 78
8
 79
3
170
0
171
3
172
1
173
0
174
0
175
0
176
0
177
0
178
0
179
2
271
2
272
2
273
2
274
3
275
0
276
0
277
2
278
44
279
0
280
0
281
0
282
0
283
0
284
8
285
0
286
0
288
0
289
3
290
0
371
-2
372
-2
  0
ENDTAB
  0
TABLE
  2
BLOCK_RECORD
  5
9
330
0
100
AcDbSymbolTable
 70
5
  0
BLOCK_RECORD
  5
17
330
9
100
AcDbSymbolTableRecord
100
AcDbBlockTableRecord
  2
*Model_Space
340
1A
 70
0
280
1
281
0
  0
BLOCK_RECORD
  5
1B
330
9
100
AcDbSymbolTableRecord
100
AcDbBlockTableRecord
  2
*Paper_Space
340
1E
 70
0
280
1
281
0
  0
BLOCK_RECORD
  5
D3
330
9
100
AcDbSymbolTableRecord
100
AcDbBlockTableRecord
  2
*D1
340
0
 70
0
280
1
281
0
  0
BLOCK_RECORD
  5
D8
330
9
100
AcDbSymbolTableRecord
100
AcDbBlockTableRecord
  2
_CLOSEDFILLED
340
0
 70
0
280
1
281
0
  0
BLOCK_RECORD
  5
E7
330
9
100
AcDbSymbolTableRecord
100
AcDbBlockTableRecord
  2
*D2
340
0
 70
0
280
1
281
0
  0
ENDTAB
  0
ENDSEC
  0
SECTION
  2
BLOCKS
  0
BLOCK
  5
18
330
17
100
AcDbEntity
  8
0
100
AcDbBlockBegin
  2
*Model_Space
 70
0
 10
0.0
 20
0.0
 30
0.0
  3
*Model_Space
  1

  0
ENDBLK
  5
19
330
17
100
AcDbEntity
  8
0
100
AcDbBlockEnd
  0
BLOCK
  5
1C
330
1B
100
AcDbEntity
  8
0
100
AcDbBlockBegin
  2
*Paper_Space
 70
0
 10
0.0
 20
0.0
 30
0.0
  3
*Paper_Space
  1

  0
ENDBLK
  5
1D
330
1B
100
AcDbEntity
  8
0
100
AcDbBlockEnd
  0
BLOCK
  5
D4
330
D3
100
AcDbEntity
  8
0
100
AcDbBlockBegin
  2
*D1
 70
1
 10
0.0
 20
0.0
 30
0.0
  3
*D1
  1

  0
LINE
  5
D6
330
D3
100
AcDbEntity
  8
0
100
AcDbLine
 10
0.0
 20
0.0
 30
0.0
 11
0.0
 21
4.2672
 31
0.0
  0
LINE
  5
D7
330
D3
100
AcDbEntity
  8
0
100
AcDbLine
 10
91.44
 20
0.0
 30
0.0
 11
91.44
 21
4.2672
 31
0.0
  0
INSERT
  5
DC
330
D3
100
AcDbEntity
  8
A-DIMS
100
AcDbBlockReference
  2
_CLOSEDFILLED
 10
0.0
 20
4.2672
 30
0.0
 41
0.25
 42
0.25
 50
180.0
  0
INSERT
  5
DE
330
D3
100
AcDbEntity
  8
A-DIMS
100
AcDbBlockReference
  2
_CLOSEDFILLED
 10
91.44
 20
4.2672
 30
0.0
 41
0.25
 42
0.25
  0
LINE
  5
E0
330
D3
100
AcDbEntity
  8
0
100
AcDbLine
 10
0.25
 20
4.2672
 30
0.0
 11
43.22
 21
4.2672
 31
0.0
  0
LINE
  5
E1
330
D3
100
AcDbEntity
  8
0
100
AcDbLine
 10
48.22
 20
4.2672
 30
0.0
 11
91.19
 21
4.2672
 31
0.0
  0
MTEXT
  5
E2
330
D3
100
AcDbEntity
  8
A-DIMS
100
AcDbMText
 10
45.72
 20
4.2672
 30
0.0
 40
1.0
 71
5
  1
91,44
  0
POINT
  5
E3
330
D3
100
AcDbEntity
  8
Defpoints
100
AcDbPoint
 10
0.0
 20
4.2672
 30
0.0
  0
POINT
  5
E4
330
D3
100
AcDbEntity
  8
Defpoints
100
AcDbPoint
 10
0.0
 20
-0.0
 30
0.0
  0
POINT
  5
E5
330
D3
100
AcDbEntity
  8
Defpoints
100
AcDbPoint
 10
91.44
 20
-0.0
 30
0.0
  0
ENDBLK
  5
D5
330
D3
100
AcDbEntity
  8
0
100
AcDbBlockEnd
  0
BLOCK
  5
D9
330
D8
100
AcDbEntity
  8
0
100
AcDbBlockBegin
  2
_CLOSEDFILLED
 70
0
 10
0.0
 20
0.0
 30
0.0
  3
_CLOSEDFILLED
  1

  0
SOLID
  5
DB
330
D8
100
AcDbEntity
  8
0
  6
BYBLOCK
 62
0
100
AcDbTrace
 10
-1.0
 20
0.16439898372402537
 30
0.0
 11
0.0
 21
0.0
 31
0.0
 12
-1.0
 22
-0.16439898372402537
 32
0.0
 13
-1.0
 23
-0.16439898372402537
 33
0.0
  0
ENDBLK
  5
DA
330
D8
100
AcDbEntity
  8
0
100
AcDbBlockEnd
  0
BLOCK
  5
E8
330
E7
100
AcDbEntity
  8
0
100
AcDbBlockBegin
  2
*D2
 70
1
 10
0.0
 20
0.0
 30
0.0
  3
*D2
  1

  0
LINE
  5
EA
330
E7
100
AcDbEntity
  8
0
100
AcDbLine
 10
0.0
 20
0.0
 30
0.0
 11
-4.8768
 21
0.0
 31
0.0
  0
LINE
  5
EB
330
E7
100
AcDbEntity
  8
0
100
AcDbLine
 10
0.0
 20
-152.4
 30
0.0
 11
-4.8768
 21
-152.4
 31
0.0
  0
INSERT
  5
EC
330
E7
100
AcDbEntity
  8
A-DIMS
100
AcDbBlockReference
  2
_CLOSEDFILLED
 10
-4.8768
 20
-0.0
 30
0.0
 41
0.25
 42
0.25
 50
270.0
  0
INSERT
  5
EE
330
E7
100
AcDbEntity
  8
A-DIMS
100
AcDbBlockReference
  2
_CLOSEDFILLED
 10
-4.8768
 20
-152.4
 30
0.0
 41
0.25
 42
0.25
 50
90.0
  0
LINE
  5
F0
330
E7
100
AcDbEntity
  8
0
100
AcDbLine
 10
-4.8768
 20
0.25
 30
0.0
 11
-4.8768
 21
-73.7
 31
0.0
  0
LINE
  5
F1
330
E7
100
AcDbEntity
  8
0
100
AcDbLine
 10
-4.8768
 20
-78.7
 30
0.0
 11
-4.8768
 21
-152.65
 31
0.0
  0
MTEXT
  5
F2
330
E7
100
AcDbEntity
  8
A-DIMS
100
AcDbMText
 10
-4.8768
 20
-76.2
 30
0.0
 40
1.0
 71
5
  1
152,4
 50
90.0
  0
POINT
  5
F3
330
E7
100
AcDbEntity
  8
Defpoints
100
AcDbPoint
 10
-4.8768
 20
-0.0
 30
0.0
  0
POINT
  5
F4
330
E7
100
AcDbEntity
  8
Defpoints
100
AcDbPoint
 10
0.0
 20
-0.0
 30
0.0
  0
POINT
  5
F5
330
E7
100
AcDbEntity
  8
Defpoints
100
AcDbPoint
 10
0.0
 20
-152.4
 30
0.0
  0
ENDBLK
  5
E9
330
E7
100
AcDbEntity
  8
0
100
AcDbBlockEnd
  0
ENDSEC
  0
SECTION
  2
ENTITIES
  0
LWPOLYLINE
  5
38
330
17
100
AcDbEntity
  8
A-BORDER
100
AcDbPolyline
 90
5
 70
1
 10
0.0
 20
-0.0
 10
91.44
 20
-0.0
 10
91.44
 20
-152.4
 10
0.0
 20
-152.4
 10
0.0
 20
-0.0
  0
LWPOLYLINE
  5
39
330
17
100
AcDbEntity
  8
A-BORDER
100
AcDbPolyline
 90
5
 70
1
 10
6.096
 20
-15.24
 10
85.34400000000001
 20
-15.24
 10
85.34400000000001
 20
-143.256
 10
6.096
 20
-143.256
 10
6.096
 20
-15.24
  0
LWPOLYLINE
  5
3A
330
17
100
AcDbEntity
  8
A-ROOM
100
AcDbPolyline
 90
5
 70
1
 10
15.8496
 20
-31.0896
 10
67.02552
 20
-31.0896
 10
67.02552
 20
-60.3504
 10
15.8496
 20
-60.3504
 10
15.8496
 20
-31.0896
  0
HATCH
  5
3B
330
17
100
AcDbEntity
  8
A-ROOM
 62
7
100
AcDbHatch
 10
0.0
 20
0.0
 30
0.0
210
0.0
220
0.0
230
1.0
  2
SOLID
 70
0
 71
0
 91
1
 92
3
 72
0
 73
1
 93
4
 10
15.8496
 20
-31.0896
 10
67.02552
 20
-31.0896
 10
67.02552
 20
-60.3504
 10
15.8496
 20
-60.3504
 97
0
 75
1
 76
1
 52
0.0
 41
1.0
 77
0
 78
1
 53
45.0
 43
0.0
 44
0.0
 45
-0.0883883476
 46
0.0883883476
 79
0
 98
0
  0
LWPOLYLINE
  5
3C
330
17
100
AcDbEntity
  8
A-ROOM
100
AcDbPolyline
 90
5
 70
1
 10
67.02552
 20
-31.0896
 10
87.75192
 20
-31.0896
 10
87.75192
 20
-43.49496
 10
67.02552
 20
-43.49496
 10
67.02552
 20
-31.0896
  0
HATCH
  5
3D
330
17
100
AcDbEntity
  8
A-ROOM
 62
7
100
AcDbHatch
 10
0.0
 20
0.0
 30
0.0
210
0.0
220
0.0
230
1.0
  2
SOLID
 70
0
 71
0
 91
1
 92
3
 72
0
 73
1
 93
4
 10
67.02552
 20
-31.0896
 10
87.75192
 20
-31.0896
 10
87.75192
 20
-43.49496
 10
67.02552
 20
-43.49496
 97
0
 75
1
 76
1
 52
0.0
 41
1.0
 77
0
 78
1
 53
45.0
 43
0.0
 44
0.0
 45
-0.0883883476
 46
0.0883883476
 79
0
 98
0
  0
LWPOLYLINE
  5
3E
330
17
100
AcDbEntity
  8
A-ROOM
100
AcDbPolyline
 90
5
 70
1
 10
87.75192
 20
-31.0896
 10
106.0704
 20
-31.0896
 10
106.0704
 20
-55.86984
 10
87.75192
 20
-55.86984
 10
87.75192
 20
-31.0896
  0
HATCH
  5
3F
330
17
100
AcDbEntity
  8
A-ROOM
 62
7
100
AcDbHatch
 10
0.0
 20
0.0
 30
0.0
210
0.0
220
0.0
230
1.0
  2
SOLID
 70
0
 71
0
 91
1
 92
3
 72
0
 73
1
 93
4
 10
87.75192
 20
-31.0896
 10
106.0704
 20
-31.0896
 10
106.0704
 20
-55.86984
 10
87.75192
 20
-55.86984
 97
0
 75
1
 76
1
 52
0.0
 41
1.0
 77
0
 78
1
 53
45.0
 43
0.0
 44
0.0
 45
-0.0883883476
 46
0.0883883476
 79
0
 98
0
  0
LWPOLYLINE
  5
40
330
17
100
AcDbEntity
  8
A-ROOM
100
AcDbPolyline
 90
5
 70
1
 10
15.8496
 20
-61.5696
 10
52.1208
 20
-61.5696
 10
52.1208
 20
-96.774
 10
15.8496
 20
-96.774
 10
15.8496
 20
-61.5696
  0
HATCH
  5
41
330
17
100
AcDbEntity
  8
A-ROOM
 62
7
100
AcDbHatch
 10
0.0
 20
0.0
 30
0.0
210
0.0
220
0.0
230
1.0
  2
SOLID
 70
0
 71
0
 91
1
 92
3
 72
0
 73
1
 93
4
 10
15.8496
 20
-61.5696
 10
52.1208
 20
-61.5696
 10
52.1208
 20
-96.774
 10
15.8496
 20
-96.774
 97
0
 75
1
 76
1
 52
0.0
 41
1.0
 77
0
 78
1
 53
45.0
 43
0.0
 44
0.0
 45
-0.0883883476
 46
0.0883883476
 79
0
 98
0
  0
LWPOLYLINE
  5
42
330
17
100
AcDbEntity
  8
A-ROOM
100
AcDbPolyline
 90
5
 70
1
 10
52.1208
 20
-61.5696
 10
78.0288
 20
-61.5696
 10
78.0288
 20
-96.774
 10
52.1208
 20
-96.774
 10
52.1208
 20
-61.5696
  0
HATCH
  5
43
330
17
100
AcDbEntity
  8
A-ROOM
 62
7
100
AcDbHatch
 10
0.0
 20
0.0
 30
0.0
210
0.0
220
0.0
230
1.0
  2
SOLID
 70
0
 71
0
 91
1
 92
3
 72
0
 73
1
 93
4
 10
52.1208
 20
-61.5696
 10
78.0288
 20
-61.5696
 10
78.0288
 20
-96.774
 10
52.1208
 20
-96.774
 97
0
 75
1
 76
1
 52
0.0
 41
1.0
 77
0
 78
1
 53
45.0
 43
0.0
 44
0.0
 45
-0.0883883476
 46
0.0883883476
 79
0
 98
0
  0
LWPOLYLINE
  5
44
330
17
100
AcDbEntity
  8
A-ROOM
100
AcDbPolyline
 90
5
 70
1
 10
78.0288
 20
-61.5696
 10
101.346
 20
-61.5696
 10
101.346
 20
-91.31808000000001
 10
78.0288
 20
-91.31808000000001
 10
78.0288
 20
-61.5696
  0
HATCH
  5
45
330
17
100
AcDbEntity
  8
A-ROOM
 62
7
100
AcDbHatch
 10
0.0
 20
0.0
 30
0.0
210
0.0
220
0.0
230
1.0
  2
SOLID
 70
0
 71
0
 91
1
 92
3
 72
0
 73
1
 93
4
 10
78.0288
 20
-61.5696
 10
101.346
 20
-61.5696
 10
101.346
 20
-91.31808000000001
 10
78.0288
 20
-91.31808000000001
 97
0
 75
1
 76
1
 52
0.0
 41
1.0
 77
0
 78
1
 53
45.0
 43
0.0
 44
0.0
 45
-0.0883883476
 46
0.0883883476
 79
0
 98
0
  0
LWPOLYLINE
  5
46
330
17
100
AcDbEntity
  8
A-ROOM
100
AcDbPolyline
 90
5
 70
1
 10
101.346
 20
-61.5696
 10
111.70920000000001
 20
-61.5696
 10
111.70920000000001
 20
-81.41208000000002
 10
101.346
 20
-81.41208000000002
 10
101.346
 20
-61.5696
  0
HATCH
  5
47
330
17
100
AcDbEntity
  8
A-ROOM
 62
7
100
AcDbHatch
 10
0.0
 20
0.0
 30
0.0
210
0.0
220
0.0
230
1.0
  2
SOLID
 70
0
 71
0
 91
1
 92
3
 72
0
 73
1
 93
4
 10
101.346
 20
-61.5696
 10
111.70920000000001
 20
-61.5696
 10
111.70920000000001
 20
-81.41208000000002
 10
101.346
 20
-81.41208000000002
 97
0
 75
1
 76
1
 52
0.0
 41
1.0
 77
0
 78
1
 53
45.0
 43
0.0
 44
0.0
 45
-0.0883883476
 46
0.0883883476
 79
0
 98
0
  0
LWPOLYLINE
  5
48
330
17
100
AcDbEntity
  8
A-ROOM
100
AcDbPolyline
 90
5
 70
1
 10
15.8496
 20
-97.3836
 10
106.0704
 20
-97.3836
 10
106.0704
 20
-112.62360000000001
 10
15.8496
 20
-112.62360000000001
 10
15.8496
 20
-97.3836
  0
HATCH
  5
49
330
17
100
AcDbEntity
  8
A-ROOM
 62
7
100
AcDbHatch
 10
0.0
 20
0.0
 30
0.0
210
0.0
220
0.0
230
1.0
  2
SOLID
 70
0
 71
0
 91
1
 92
3
 72
0
 73
1
 93
4
 10
15.8496
 20
-97.3836
 10
106.0704
 20
-97.3836
 10
106.0704
 20
-112.62360000000001
 10
15.8496
 20
-112.62360000000001
 97
0
 75
1
 76
1
 52
0.0
 41
1.0
 77
0
 78
1
 53
45.0
 43
0.0
 44
0.0
 45
-0.0883883476
 46
0.0883883476
 79
0
 98
0
  0
LWPOLYLINE
  5
4A
330
17
100
AcDbEntity
  8
A-ROOM
100
AcDbPolyline
 90
5
 70
1
 10
15.8496
 20
-113.23320000000001
 10
64.61760000000001
 20
-113.23320000000001
 10
64.61760000000001
 20
-139.446
 10
15.8496
 20
-139.446
 10
15.8496
 20
-113.23320000000001
  0
HATCH
  5
4B
330
17
100
AcDbEntity
  8
A-ROOM
 62
7
100
AcDbHatch
 10
0.0
 20
0.0
 30
0.0
210
0.0
220
0.0
230
1.0
  2
SOLID
 70
0
 71
0
 91
1
 92
3
 72
0
 73
1
 93
4
 10
15.8496
 20
-113.23320000000001
 10
64.61760000000001
 20
-113.23320000000001
 10
64.61760000000001
 20
-139.446
 10
15.8496
 20
-139.446
 97
0
 75
1
 76
1
 52
0.0
 41
1.0
 77
0
 78
1
 53
45.0
 43
0.0
 44
0.0
 45
-0.0883883476
 46
0.0883883476
 79
0
 98
0
  0
LWPOLYLINE
  5
4C
330
17
100
AcDbEntity
  8
A-ROOM
100
AcDbPolyline
 90
5
 70
1
 10
64.61760000000001
 20
-113.23320000000001
 10
103.29672
 20
-113.23320000000001
 10
103.29672
 20
-139.446
 10
64.61760000000001
 20
-139.446
 10
64.61760000000001
 20
-113.23320000000001
  0
HATCH
  5
4D
330
17
100
AcDbEntity
  8
A-ROOM
 62
7
100
AcDbHatch
 10
0.0
 20
0.0
 30
0.0
210
0.0
220
0.0
230
1.0
  2
SOLID
 70
0
 71
0
 91
1
 92
3
 72
0
 73
1
 93
4
 10
64.61760000000001
 20
-113.23320000000001
 10
103.29672
 20
-113.23320000000001
 10
103.29672
 20
-139.446
 10
64.61760000000001
 20
-139.446
 97
0
 75
1
 76
1
 52
0.0
 41
1.0
 77
0
 78
1
 53
45.0
 43
0.0
 44
0.0
 45
-0.0883883476
 46
0.0883883476
 79
0
 98
0
  0
LWPOLYLINE
  5
4E
330
17
100
AcDbEntity
  8
A-ROOM
100
AcDbPolyline
 90
5
 70
1
 10
15.8496
 20
-140.6652
 10
63.215520000000005
 20
-140.6652
 10
63.215520000000005
 20
-163.83
 10
15.8496
 20
-163.83
 10
15.8496
 20
-140.6652
  0
HATCH
  5
4F
330
17
100
AcDbEntity
  8
A-ROOM
 62
7
100
AcDbHatch
 10
0.0
 20
0.0
 30
0.0
210
0.0
220
0.0
230
1.0
  2
SOLID
 70
0
 71
0
 91
1
 92
3
 72
0
 73
1
 93
4
 10
15.8496
 20
-140.6652
 10
63.215520000000005
 20
-140.6652
 10
63.215520000000005
 20
-163.83
 10
15.8496
 20
-163.83
 97
0
 75
1
 76
1
 52
0.0
 41
1.0
 77
0
 78
1
 53
45.0
 43
0.0
 44
0.0
 45
-0.0883883476
 46
0.0883883476
 79
0
 98
0
  0
LWPOLYLINE
  5
50
330
17
100
AcDbEntity
  8
A-ROOM
100
AcDbPolyline
 90
5
 70
1
 10
63.215520000000005
 20
-140.6652
 10
106.0704
 20
-140.6652
 10
106.0704
 20
-163.83
 10
63.215520000000005
 20
-163.83
 10
63.215520000000005
 20
-140.6652
  0
HATCH
  5
51
330
17
100
AcDbEntity
  8
A-ROOM
 62
7
100
AcDbHatch
 10
0.0
 20
0.0
 30
0.0
210
0.0
220
0.0
230
1.0
  2
SOLID
 70
0
 71
0
 91
1
 92
3
 72
0
 73
1
 93
4
 10
63.215520000000005
 20
-140.6652
 10
106.0704
 20
-140.6652
 10
106.0704
 20
-163.83
 10
63.215520000000005
 20
-163.83
 97
0
 75
1
 76
1
 52
0.0
 41
1.0
 77
0
 78
1
 53
45.0
 43
0.0
 44
0.0
 45
-0.0883883476
 46
0.0883883476
 79
0
 98
0
  0
LWPOLYLINE
  5
52
330
17
100
AcDbEntity
  8
A-WALL-INT
100
AcDbPolyline
 90
2
 70
0
 43
1.2192
 10
15.8496
 20
-31.0896
 10
67.02552
 20
-31.0896
  0
LWPOLYLINE
  5
53
330
17
100
AcDbEntity
  8
A-WALL-INT
100
AcDbPolyline
 90
2
 70
0
 43
1.2192
 10
67.02552
 20
-31.0896
 10
67.02552
 20
-60.3504
  0
LWPOLYLINE
  5
54
330
17
100
AcDbEntity
  8
A-WALL-INT
100
AcDbPolyline
 90
2
 70
0
 43
1.2192
 10
67.02552
 20
-60.3504
 10
15.8496
 20
-60.3504
  0
LWPOLYLINE
  5
55
330
17
100
AcDbEntity
  8
A-WALL-INT
100
AcDbPolyline
 90
2
 70
0
 43
1.2192
 10
15.8496
 20
-60.3504
 10
15.8496
 20
-31.0896
  0
LWPOLYLINE
  5
56
330
17
100
AcDbEntity
  8
A-WALL-INT
100
AcDbPolyline
 90
2
 70
0
 43
1.2192
 10
67.02552
 20
-31.0896
 10
87.75192
 20
-31.0896
  0
LWPOLYLINE
  5
57
330
17
100
AcDbEntity
  8
A-WALL-INT
100
AcDbPolyline
 90
2
 70
0
 43
1.2192
 10
87.75192
 20
-31.0896
 10
87.75192
 20
-43.49496
  0
LWPOLYLINE
  5
58
330
17
100
AcDbEntity
  8
A-WALL-INT
100
AcDbPolyline
 90
2
 70
0
 43
1.2192
 10
87.75192
 20
-43.49496
 10
67.02552
 20
-43.49496
  0
LWPOLYLINE
  5
59
330
17
100
AcDbEntity
  8
A-WALL-INT
100
AcDbPolyline
 90
2
 70
0
 43
1.2192
 10
67.02552
 20
-43.49496
 10
67.02552
 20
-31.0896
  0
LWPOLYLINE
  5
5A
330
17
100
AcDbEntity
  8
A-WALL-INT
100
AcDbPolyline
 90
2
 70
0
 43
1.2192
 10
87.75192
 20
-31.0896
 10
106.0704
 20
-31.0896
  0
LWPOLYLINE
  5
5B
330
17
100
AcDbEntity
  8
A-WALL-INT
100
AcDbPolyline
 90
2
 70
0
 43
1.2192
 10
106.0704
 20
-31.0896
 10
106.0704
 20
-55.86984
  0
LWPOLYLINE
  5
5C
330
17
100
AcDbEntity
  8
A-WALL-INT
100
AcDbPolyline
 90
2
 70
0
 43
1.2192
 10
106.0704
 20
-55.86984
 10
87.75192
 20
-55.86984
  0
LWPOLYLINE
  5
5D
330
17
100
AcDbEntity
  8
A-WALL-INT
100
AcDbPolyline
 90
2
 70
0
 43
1.2192
 10
87.75192
 20
-55.86984
 10
87.75192
 20
-31.0896
  0
LWPOLYLINE
  5
5E
330
17
100
AcDbEntity
  8
A-WALL-INT
100
AcDbPolyline
 90
2
 70
0
 43
1.2192
 10
15.8496
 20
-61.5696
 10
52.1208
 20
-61.5696
  0
LWPOLYLINE
  5
5F
330
17
100
AcDbEntity
  8
A-WALL-INT
100
AcDbPolyline
 90
2
 70
0
 43
1.2192
 10
52.1208
 20
-61.5696
 10
52.1208
 20
-96.774
  0
LWPOLYLINE
  5
60
330
17
100
AcDbEntity
  8
A-WALL-INT
100
AcDbPolyline
 90
2
 70
0
 43
1.2192
 10
52.1208
 20
-96.774
 10
15.8496
 20
-96.774
  0
LWPOLYLINE
  5
61
330
17
100
AcDbEntity
  8
A-WALL-INT
100
AcDbPolyline
 90
2
 70
0
 43
1.2192
 10
15.8496
 20
-96.774
 10
15.8496
 20
-61.5696
  0
LWPOLYLINE
  5
62
330
17
100
AcDbEntity
  8
A-WALL-INT
100
AcDbPolyline
 90
2
 70
0
 43
1.2192
 10
52.1208
 20
-61.5696
 10
78.0288
 20
-61.5696
  0
LWPOLYLINE
  5
63
330
17
100
AcDbEntity
  8
A-WALL-INT
100
AcDbPolyline
 90
2
 70
0
 43
1.2192
 10
78.0288
 20
-61.5696
 10
78.0288
 20
-96.774
  0
LWPOLYLINE
  5
64
330
17
100
AcDbEntity
  8
A-WALL-INT
100
AcDbPolyline
 90
2
 70
0
 43
1.2192
 10
78.0288
 20
-96.774
 10
52.1208
 20
-96.774
  0
LWPOLYLINE
  5
65
330
17
100
AcDbEntity
  8
A-WALL-INT
100
AcDbPolyline
 90
2
 70
0
 43
1.2192
 10
52.1208
 20
-96.774
 10
52.1208
 20
-61.5696
  0
LWPOLYLINE
  5
66
330
17
100
AcDbEntity
  8
A-WALL-INT
100
AcDbPolyline
 90
2
 70
0
 43
1.2192
 10
78.0288
 20
-61.5696
 10
101.346
 20
-61.5696
  0
LWPOLYLINE
  5
67
330
17
100
AcDbEntity
  8
A-WALL-INT
100
AcDbPolyline
 90
2
 70
0
 43
1.2192
 10
101.346
 20
-61.5696
 10
101.346
 20
-91.31808000000001
  0
LWPOLYLINE
  5
68
330
17
100
AcDbEntity
  8
A-WALL-INT
100
AcDbPolyline
 90
2
 70
0
 43
1.2192
 10
101.346
 20
-91.31808000000001
 10
78.0288
 20
-91.31808000000001
  0
LWPOLYLINE
  5
69
330
17
100
AcDbEntity
  8
A-WALL-INT
100
AcDbPolyline
 90
2
 70
0
 43
1.2192
 10
78.0288
 20
-91.31808000000001
 10
78.0288
 20
-61.5696
  0
LWPOLYLINE
  5
6A
330
17
100
AcDbEntity
  8
A-WALL-INT
100
AcDbPolyline
 90
2
 70
0
 43
1.2192
 10
101.346
 20
-61.5696
 10
111.70920000000001
 20
-61.5696
  0
LWPOLYLINE
  5
6B
330
17
100
AcDbEntity
  8
A-WALL-INT
100
AcDbPolyline
 90
2
 70
0
 43
1.2192
 10
111.70920000000001
 20
-61.5696
 10
111.70920000000001
 20
-81.41208000000002
  0
LWPOLYLINE
  5
6C
330
17
100
AcDbEntity
  8
A-WALL-INT
100
AcDbPolyline
 90
2
 70
0
 43
1.2192
 10
111.70920000000001
 20
-81.41208000000002
 10
101.346
 20
-81.41208000000002
  0
LWPOLYLINE
  5
6D
330
17
100
AcDbEntity
  8
A-WALL-INT
100
AcDbPolyline
 90
2
 70
0
 43
1.2192
 10
101.346
 20
-81.41208000000002
 10
101.346
 20
-61.5696
  0
LWPOLYLINE
  5
6E
330
17
100
AcDbEntity
  8
A-WALL-INT
100
AcDbPolyline
 90
2
 70
0
 43
1.2192
 10
15.8496
 20
-97.3836
 10
106.0704
 20
-97.3836
  0
LWPOLYLINE
  5
6F
330
17
100
AcDbEntity
  8
A-WALL-INT
100
AcDbPolyline
 90
2
 70
0
 43
1.2192
 10
106.0704
 20
-97.3836
 10
106.0704
 20
-112.62360000000001
  0
LWPOLYLINE
  5
70
330
17
100
AcDbEntity
  8
A-WALL-INT
100
AcDbPolyline
 90
2
 70
0
 43
1.2192
 10
106.0704
 20
-112.62360000000001
 10
15.8496
 20
-112.62360000000001
  0
LWPOLYLINE
  5
71
330
17
100
AcDbEntity
  8
A-WALL-INT
100
AcDbPolyline
 90
2
 70
0
 43
1.2192
 10
15.8496
 20
-112.62360000000001
 10
15.8496
 20
-97.3836
  0
LWPOLYLINE
  5
72
330
17
100
AcDbEntity
  8
A-WALL-INT
100
AcDbPolyline
 90
2
 70
0
 43
1.2192
 10
15.8496
 20
-113.23320000000001
 10
64.61760000000001
 20
-113.23320000000001
  0
LWPOLYLINE
  5
73
330
17
100
AcDbEntity
  8
A-WALL-INT
100
AcDbPolyline
 90
2
 70
0
 43
1.2192
 10
64.61760000000001
 20
-113.23320000000001
 10
64.61760000000001
 20
-139.446
  0
LWPOLYLINE
  5
74
330
17
100
AcDbEntity
  8
A-WALL-INT
100
AcDbPolyline
 90
2
 70
0
 43
1.2192
 10
64.61760000000001
 20
-139.446
 10
15.8496
 20
-139.446
  0
LWPOLYLINE
  5
75
330
17
100
AcDbEntity
  8
A-WALL-INT
100
AcDbPolyline
 90
2
 70
0
 43
1.2192
 10
15.8496
 20
-139.446
 10
15.8496
 20
-113.23320000000001
  0
LWPOLYLINE
  5
76
330
17
100
AcDbEntity
  8
A-WALL-INT
100
AcDbPolyline
 90
2
 70
0
 43
1.2192
 10
64.61760000000001
 20
-113.23320000000001
 10
103.29672
 20
-113.23320000000001
  0
LWPOLYLINE
  5
77
330
17
100
AcDbEntity
  8
A-WALL-INT
100
AcDbPolyline
 90
2
 70
0
 43
1.2192
 10
103.29672
 20
-113.23320000000001
 10
103.29672
 20
-139.446
  0
LWPOLYLINE
  5
78
330
17
100
AcDbEntity
  8
A-WALL-INT
100
AcDbPolyline
 90
2
 70
0
 43
1.2192
 10
103.29672
 20
-139.446
 10
64.61760000000001
 20
-139.446
  0
LWPOLYLINE
  5
79
330
17
100
AcDbEntity
  8
A-WALL-INT
100
AcDbPolyline
 90
2
 70
0
 43
1.2192
 10
64.61760000000001
 20
-139.446
 10
64.61760000000001
 20
-113.23320000000001
  0
LWPOLYLINE
  5
7A
330
17
100
AcDbEntity
  8
A-WALL-INT
100
AcDbPolyline
 90
2
 70
0
 43
1.2192
 10
15.8496
 20
-140.6652
 10
63.215520000000005
 20
-140.6652
  0
LWPOLYLINE
  5
7B
330
17
100
AcDbEntity
  8
A-WALL-INT
100
AcDbPolyline
 90
2
 70
0
 43
1.2192
 10
63.215520000000005
 20
-140.6652
 10
63.215520000000005
 20
-163.83
  0
LWPOLYLINE
  5
7C
330
17
100
AcDbEntity
  8
A-WALL-INT
100
AcDbPolyline
 90
2
 70
0
 43
1.2192
 10
63.215520000000005
 20
-163.83
 10
15.8496
 20
-163.83
  0
LWPOLYLINE
  5
7D
330
17
100
AcDbEntity
  8
A-WALL-INT
100
AcDbPolyline
 90
2
 70
0
 43
1.2192
 10
15.8496
 20
-163.83
 10
15.8496
 20
-140.6652
  0
LWPOLYLINE
  5
7E
330
17
100
AcDbEntity
  8
A-WALL-INT
100
AcDbPolyline
 90
2
 70
0
 43
1.2192
 10
63.215520000000005
 20
-140.6652
 10
106.0704
 20
-140.6652
  0
LWPOLYLINE
  5
7F
330
17
100
AcDbEntity
  8
A-WALL-INT
100
AcDbPolyline
 90
2
 70
0
 43
1.2192
 10
106.0704
 20
-140.6652
 10
106.0704
 20
-163.83
  0
LWPOLYLINE
  5
80
330
17
100
AcDbEntity
  8
A-WALL-INT
100
AcDbPolyline
 90
2
 70
0
 43
1.2192
 10
106.0704
 20
-163.83
 10
63.215520000000005
 20
-163.83
  0
LWPOLYLINE
  5
81
330
17
100
AcDbEntity
  8
A-WALL-INT
100
AcDbPolyline
 90
2
 70
0
 43
1.2192
 10
63.215520000000005
 20
-163.83
 10
63.215520000000005
 20
-140.6652
  0
LWPOLYLINE
  5
82
330
17
100
AcDbEntity
  8
A-WALL
100
AcDbPolyline
 90
5
 70
1
 43
2.286
 10
6.096
 20
-15.24
 10
85.34400000000001
 20
-15.24
 10
85.34400000000001
 20
-143.256
 10
6.096
 20
-143.256
 10
6.096
 20
-15.24
  0
LINE
  5
83
330
17
100
AcDbEntity
  8
A-SYMB
100
AcDbLine
 10
16.4592
 20
-60.3504
 30
0.0
 11
25.6032
 21
-60.3504
 31
0.0
  0
ARC
  5
84
330
17
100
AcDbEntity
  8
A-SYMB
100
AcDbCircle
 10
16.4592
 20
-60.3504
 30
0.0
 40
9.144
100
AcDbArc
 50
0.0
 51
90.0
  0
LINE
  5
85
330
17
100
AcDbEntity
  8
A-SYMB
100
AcDbLine
 10
67.63512
 20
-43.49496
 30
0.0
 11
73.85304
 21
-43.49496
 31
0.0
  0
ARC
  5
86
330
17
100
AcDbEntity
  8
A-SYMB
100
AcDbCircle
 10
67.63512
 20
-43.49496
 30
0.0
 40
6.2179199999999994
100
AcDbArc
 50
0.0
 51
90.0
  0
LINE
  5
87
330
17
100
AcDbEntity
  8
A-SYMB
100
AcDbLine
 10
88.36152
 20
-55.86984
 30
0.0
 11
93.857064
 21
-55.86984
 31
0.0
  0
ARC
  5
88
330
17
100
AcDbEntity
  8
A-SYMB
100
AcDbCircle
 10
88.36152
 20
-55.86984
 30
0.0
 40
5.495544000000001
100
AcDbArc
 50
0.0
 51
90.0
  0
LINE
  5
89
330
17
100
AcDbEntity
  8
A-SYMB
100
AcDbLine
 10
16.4592
 20
-96.774
 30
0.0
 11
25.6032
 21
-96.774
 31
0.0
  0
ARC
  5
8A
330
17
100
AcDbEntity
  8
A-SYMB
100
AcDbCircle
 10
16.4592
 20
-96.774
 30
0.0
 40
9.144
100
AcDbArc
 50
0.0
 51
90.0
  0
LINE
  5
8B
330
17
100
AcDbEntity
  8
A-SYMB
100
AcDbLine
 10
52.7304
 20
-96.774
 30
0.0
 11
60.5028
 21
-96.774
 31
0.0
  0
ARC
  5
8C
330
17
100
AcDbEntity
  8
A-SYMB
100
AcDbCircle
 10
52.7304
 20
-96.774
 30
0.0
 40
7.7724
100
AcDbArc
 50
0.0
 51
90.0
  0
LINE
  5
8D
330
17
100
AcDbEntity
  8
A-SYMB
100
AcDbLine
 10
78.6384
 20
-91.31808000000001
 30
0.0
 11
85.63356
 21
-91.31808000000001
 31
0.0
  0
ARC
  5
8E
330
17
100
AcDbEntity
  8
A-SYMB
100
AcDbCircle
 10
78.6384
 20
-91.31808000000001
 30
0.0
 40
6.99516
100
AcDbArc
 50
0.0
 51
90.0
  0
LINE
  5
8F
330
17
100
AcDbEntity
  8
A-SYMB
100
AcDbLine
 10
101.9556
 20
-81.41208000000002
 30
0.0
 11
105.06456
 21
-81.41208000000002
 31
0.0
  0
ARC
  5
90
330
17
100
AcDbEntity
  8
A-SYMB
100
AcDbCircle
 10
101.9556
 20
-81.41208000000002
 30
0.0
 40
3.1089599999999997
100
AcDbArc
 50
0.0
 51
90.0
  0
LINE
  5
91
330
17
100
AcDbEntity
  8
A-SYMB
100
AcDbLine
 10
16.4592
 20
-139.446
 30
0.0
 11
25.6032
 21
-139.446
 31
0.0
  0
ARC
  5
92
330
17
100
AcDbEntity
  8
A-SYMB
100
AcDbCircle
 10
16.4592
 20
-139.446
 30
0.0
 40
9.144
100
AcDbArc
 50
0.0
 51
90.0
  0
LINE
  5
93
330
17
100
AcDbEntity
  8
A-SYMB
100
AcDbLine
 10
65.2272
 20
-139.446
 30
0.0
 11
74.3712
 21
-139.446
 31
0.0
  0
ARC
  5
94
330
17
100
AcDbEntity
  8
A-SYMB
100
AcDbCircle
 10
65.2272
 20
-139.446
 30
0.0
 40
9.144
100
AcDbArc
 50
0.0
 51
90.0
  0
LINE
  5
95
330
17
100
AcDbEntity
  8
A-SYMB
100
AcDbLine
 10
16.4592
 20
-163.83
 30
0.0
 11
25.6032
 21
-163.83
 31
0.0
  0
ARC
  5
96
330
17
100
AcDbEntity
  8
A-SYMB
100
AcDbCircle
 10
16.4592
 20
-163.83
 30
0.0
 40
9.144
100
AcDbArc
 50
0.0
 51
90.0
  0
LINE
  5
97
330
17
100
AcDbEntity
  8
A-SYMB
100
AcDbLine
 10
63.825120000000005
 20
-163.83
 30
0.0
 11
72.96912
 21
-163.83
 31
0.0
  0
ARC
  5
98
330
17
100
AcDbEntity
  8
A-SYMB
100
AcDbCircle
 10
63.825120000000005
 20
-163.83
 30
0.0
 40
9.144
100
AcDbArc
 50
0.0
 51
90.0
  0
LINE
  5
99
330
17
100
AcDbEntity
  8
A-SYMB
 62
4
100
AcDbLine
 10
92.33915999999999
 20
-31.0896
 30
0.0
 11
101.48316
 21
-31.0896
 31
0.0
  0
LINE
  5
9A
330
17
100
AcDbEntity
  8
A-SYMB
 62
4
100
AcDbLine
 10
92.33915999999999
 20
-30.7848
 30
0.0
 11
101.48316
 21
-30.7848
 31
0.0
  0
LINE
  5
9B
330
17
100
AcDbEntity
  8
A-SYMB
 62
4
100
AcDbLine
 10
92.33915999999999
 20
-30.48
 30
0.0
 11
101.48316
 21
-30.48
 31
0.0
  0
LINE
  5
9C
330
17
100
AcDbEntity
  8
A-SYMB
 62
4
100
AcDbLine
 10
29.4132
 20
-61.5696
 30
0.0
 11
38.5572
 21
-61.5696
 31
0.0
  0
LINE
  5
9D
330
17
100
AcDbEntity
  8
A-SYMB
 62
4
100
AcDbLine
 10
29.4132
 20
-61.2648
 30
0.0
 11
38.5572
 21
-61.2648
 31
0.0
  0
LINE
  5
9E
330
17
100
AcDbEntity
  8
A-SYMB
 62
4
100
AcDbLine
 10
29.4132
 20
-60.96
 30
0.0
 11
38.5572
 21
-60.96
 31
0.0
  0
LINE
  5
9F
330
17
100
AcDbEntity
  8
A-SYMB
 62
4
100
AcDbLine
 10
60.50279999999999
 20
-61.5696
 30
0.0
 11
69.6468
 21
-61.5696
 31
0.0
  0
LINE
  5
A0
330
17
100
AcDbEntity
  8
A-SYMB
 62
4
100
AcDbLine
 10
60.50279999999999
 20
-61.2648
 30
0.0
 11
69.6468
 21
-61.2648
 31
0.0
  0
LINE
  5
A1
330
17
100
AcDbEntity
  8
A-SYMB
 62
4
100
AcDbLine
 10
60.50279999999999
 20
-60.96
 30
0.0
 11
69.6468
 21
-60.96
 31
0.0
  0
LINE
  5
A2
330
17
100
AcDbEntity
  8
A-SYMB
 62
4
100
AcDbLine
 10
85.11540000000001
 20
-61.5696
 30
0.0
 11
94.25940000000001
 21
-61.5696
 31
0.0
  0
LINE
  5
A3
330
17
100
AcDbEntity
  8
A-SYMB
 62
4
100
AcDbLine
 10
85.11540000000001
 20
-61.2648
 30
0.0
 11
94.25940000000001
 21
-61.2648
 31
0.0
  0
LINE
  5
A4
330
17
100
AcDbEntity
  8
A-SYMB
 62
4
100
AcDbLine
 10
85.11540000000001
 20
-60.96
 30
0.0
 11
94.25940000000001
 21
-60.96
 31
0.0
  0
LINE
  5
A5
330
17
100
AcDbEntity
  8
A-SYMB
 62
4
100
AcDbLine
 10
101.9556
 20
-61.5696
 30
0.0
 11
111.09960000000001
 21
-61.5696
 31
0.0
  0
LINE
  5
A6
330
17
100
AcDbEntity
  8
A-SYMB
 62
4
100
AcDbLine
 10
101.9556
 20
-61.2648
 30
0.0
 11
111.09960000000001
 21
-61.2648
 31
0.0
  0
LINE
  5
A7
330
17
100
AcDbEntity
  8
A-SYMB
 62
4
100
AcDbLine
 10
101.9556
 20
-60.96
 30
0.0
 11
111.09960000000001
 21
-60.96
 31
0.0
  0
LINE
  5
A8
330
17
100
AcDbEntity
  8
A-SYMB
 62
4
100
AcDbLine
 10
35.6616
 20
-113.23320000000001
 30
0.0
 11
44.805600000000005
 21
-113.23320000000001
 31
0.0
  0
LINE
  5
A9
330
17
100
AcDbEntity
  8
A-SYMB
 62
4
100
AcDbLine
 10
35.6616
 20
-112.92840000000001
 30
0.0
 11
44.805600000000005
 21
-112.92840000000001
 31
0.0
  0
LINE
  5
AA
330
17
100
AcDbEntity
  8
A-SYMB
 62
4
100
AcDbLine
 10
35.6616
 20
-112.62360000000001
 30
0.0
 11
44.805600000000005
 21
-112.62360000000001
 31
0.0
  0
LINE
  5
AB
330
17
100
AcDbEntity
  8
A-SYMB
 62
4
100
AcDbLine
 10
79.38516
 20
-113.23320000000001
 30
0.0
 11
88.52916
 21
-113.23320000000001
 31
0.0
  0
LINE
  5
AC
330
17
100
AcDbEntity
  8
A-SYMB
 62
4
100
AcDbLine
 10
79.38516
 20
-112.92840000000001
 30
0.0
 11
88.52916
 21
-112.92840000000001
 31
0.0
  0
LINE
  5
AD
330
17
100
AcDbEntity
  8
A-SYMB
 62
4
100
AcDbLine
 10
79.38516
 20
-112.62360000000001
 30
0.0
 11
88.52916
 21
-112.62360000000001
 31
0.0
  0
TEXT
  5
AE
330
17
100
AcDbEntity
  8
A-TEXT
100
AcDbText
 10
41.43756
 20
-44.25696
 30
0.0
 40
2.19456
  1
CAR PORCH
 72
1
 11
41.43756
 21
-44.25696
 31
0.0
100
AcDbText
 73
2
  0
TEXT
  5
AF
330
17
100
AcDbEntity
  8
A-TEXT
 62
8
100
AcDbText
 10
41.43756
 20
-45.72
 30
0.0
 40
1.55448
  1
16'-9" x 9'-7"
 72
1
 11
41.43756
 21
-45.72
 31
0.0
100
AcDbText
 73
2
  0
TEXT
  5
B0
330
17
100
AcDbEntity
  8
A-TEXT
 62
8
100
AcDbText
 10
41.43756
 20
-47.36592
 30
0.0
 40
1.3716000000000002
  1
161 sqft
 72
1
 11
41.43756
 21
-47.36592
 31
0.0
100
AcDbText
 73
2
  0
TEXT
  5
B1
330
17
100
AcDbEntity
  8
A-TEXT
100
AcDbText
 10
77.38872
 20
-35.82924
 30
0.0
 40
2.19456
  1
SIT OUT
 72
1
 11
77.38872
 21
-35.82924
 31
0.0
100
AcDbText
 73
2
  0
TEXT
  5
B2
330
17
100
AcDbEntity
  8
A-TEXT
 62
8
100
AcDbText
 10
77.38872
 20
-37.29228
 30
0.0
 40
1.55448
  1
6'-10" x 4'-1"
 72
1
 11
77.38872
 21
-37.29228
 31
0.0
100
AcDbText
 73
2
  0
TEXT
  5
B3
330
17
100
AcDbEntity
  8
A-TEXT
 62
8
100
AcDbText
 10
77.38872
 20
-38.938199999999995
 30
0.0
 40
1.3716000000000002
  1
28 sqft
 72
1
 11
77.38872
 21
-38.938199999999995
 31
0.0
100
AcDbText
 73
2
  0
TEXT
  5
B4
330
17
100
AcDbEntity
  8
A-TEXT
100
AcDbText
 10
96.91116
 20
-42.01668000000001
 30
0.0
 40
2.19456
  1
FOYER
 72
1
 11
96.91116
 21
-42.01668000000001
 31
0.0
100
AcDbText
 73
2
  0
TEXT
  5
B5
330
17
100
AcDbEntity
  8
A-TEXT
 62
8
100
AcDbText
 10
96.91116
 20
-43.47972000000001
 30
0.0
 40
1.55448
  1
6'-0" x 8'-2"
 72
1
 11
96.91116
 21
-43.47972000000001
 31
0.0
100
AcDbText
 73
2
  0
TEXT
  5
B6
330
17
100
AcDbEntity
  8
A-TEXT
 62
8
100
AcDbText
 10
96.91116
 20
-45.125640000000004
 30
0.0
 40
1.3716000000000002
  1
49 sqft
 72
1
 11
96.91116
 21
-45.125640000000004
 31
0.0
100
AcDbText
 73
2
  0
TEXT
  5
B7
330
17
100
AcDbEntity
  8
A-TEXT
100
AcDbText
 10
33.9852
 20
-77.70876
 30
0.0
 40
2.19456
  1
LIVING ROOM
 72
1
 11
33.9852
 21
-77.70876
 31
0.0
100
AcDbText
 73
2
  0
TEXT
  5
B8
330
17
100
AcDbEntity
  8
A-TEXT
 62
8
100
AcDbText
 10
33.9852
 20
-79.1718
 30
0.0
 40
1.55448
  1
11'-11" x 11'-7"
 72
1
 11
33.9852
 21
-79.1718
 31
0.0
100
AcDbText
 73
2
  0
TEXT
  5
B9
330
17
100
AcDbEntity
  8
A-TEXT
 62
8
100
AcDbText
 10
33.9852
 20
-80.81772000000001
 30
0.0
 40
1.3716000000000002
  1
137 sqft
 72
1
 11
33.9852
 21
-80.81772000000001
 31
0.0
100
AcDbText
 73
2
  0
TEXT
  5
BA
330
17
100
AcDbEntity
  8
A-TEXT
100
AcDbText
 10
65.0748
 20
-77.70876
 30
0.0
 40
2.19456
  1
DINING ROOM
 72
1
 11
65.0748
 21
-77.70876
 31
0.0
100
AcDbText
 73
2
  0
TEXT
  5
BB
330
17
100
AcDbEntity
  8
A-TEXT
 62
8
100
AcDbText
 10
65.0748
 20
-79.1718
 30
0.0
 40
1.55448
  1
8'-6" x 11'-7"
 72
1
 11
65.0748
 21
-79.1718
 31
0.0
100
AcDbText
 73
2
  0
TEXT
  5
BC
330
17
100
AcDbEntity
  8
A-TEXT
 62
8
100
AcDbText
 10
65.0748
 20
-80.81772000000001
 30
0.0
 40
1.3716000000000002
  1
98 sqft
 72
1
 11
65.0748
 21
-80.81772000000001
 31
0.0
100
AcDbText
 73
2
  0
TEXT
  5
BD
330
17
100
AcDbEntity
  8
A-TEXT
100
AcDbText
 10
89.68740000000001
 20
-74.9808
 30
0.0
 40
2.19456
  1
HOME OFFICE
 72
1
 11
89.68740000000001
 21
-74.9808
 31
0.0
100
AcDbText
 73
2
  0
TEXT
  5
BE
330
17
100
AcDbEntity
  8
A-TEXT
 62
8
100
AcDbText
 10
89.68740000000001
 20
-76.44384000000001
 30
0.0
 40
1.55448
  1
7'-8" x 9'-9"
 72
1
 11
89.68740000000001
 21
-76.44384000000001
 31
0.0
100
AcDbText
 73
2
  0
TEXT
  5
BF
330
17
100
AcDbEntity
  8
A-TEXT
 62
8
100
AcDbText
 10
89.68740000000001
 20
-78.08976000000001
 30
0.0
 40
1.3716000000000002
  1
76 sqft
 72
1
 11
89.68740000000001
 21
-78.08976000000001
 31
0.0
100
AcDbText
 73
2
  0
TEXT
  5
C0
330
17
100
AcDbEntity
  8
A-TEXT
100
AcDbText
 10
106.5276
 20
-70.0278
 30
0.0
 40
2.19456
  1
POOJA ROOM
 72
1
 11
106.5276
 21
-70.0278
 31
0.0
100
AcDbText
 73
2
  0
TEXT
  5
C1
330
17
100
AcDbEntity
  8
A-TEXT
 62
8
100
AcDbText
 10
106.5276
 20
-71.49084
 30
0.0
 40
1.55448
  1
3'-5" x 6'-6"
 72
1
 11
106.5276
 21
-71.49084
 31
0.0
100
AcDbText
 73
2
  0
TEXT
  5
C2
330
17
100
AcDbEntity
  8
A-TEXT
 62
8
100
AcDbText
 10
106.5276
 20
-73.13676000000001
 30
0.0
 40
1.3716000000000002
  1
22 sqft
 72
1
 11
106.5276
 21
-73.13676000000001
 31
0.0
100
AcDbText
 73
2
  0
TEXT
  5
C3
330
17
100
AcDbEntity
  8
A-TEXT
100
AcDbText
 10
60.96
 20
-103.54056
 30
0.0
 40
2.19456
  1
CORRIDOR
 72
1
 11
60.96
 21
-103.54056
 31
0.0
100
AcDbText
 73
2
  0
TEXT
  5
C4
330
17
100
AcDbEntity
  8
A-TEXT
 62
8
100
AcDbText
 10
60.96
 20
-105.0036
 30
0.0
 40
1.55448
  1
29'-7" x 5'-0"
 72
1
 11
60.96
 21
-105.0036
 31
0.0
100
AcDbText
 73
2
  0
TEXT
  5
C5
330
17
100
AcDbEntity
  8
A-TEXT
 62
8
100
AcDbText
 10
60.96
 20
-106.64952000000001
 30
0.0
 40
1.3716000000000002
  1
148 sqft
 72
1
 11
60.96
 21
-106.64952000000001
 31
0.0
100
AcDbText
 73
2
  0
TEXT
  5
C6
330
17
100
AcDbEntity
  8
A-TEXT
100
AcDbText
 10
40.2336
 20
-124.87656
 30
0.0
 40
2.19456
  1
KITCHEN
 72
1
 11
40.2336
 21
-124.87656
 31
0.0
100
AcDbText
 73
2
  0
TEXT
  5
C7
330
17
100
AcDbEntity
  8
A-TEXT
 62
8
100
AcDbText
 10
40.2336
 20
-126.3396
 30
0.0
 40
1.55448
  1
16'-0" x 8'-7"
 72
1
 11
40.2336
 21
-126.3396
 31
0.0
100
AcDbText
 73
2
  0
TEXT
  5
C8
330
17
100
AcDbEntity
  8
A-TEXT
 62
8
100
AcDbText
 10
40.2336
 20
-127.98552000000001
 30
0.0
 40
1.3716000000000002
  1
138 sqft
 72
1
 11
40.2336
 21
-127.98552000000001
 31
0.0
100
AcDbText
 73
2
  0
TEXT
  5
C9
330
17
100
AcDbEntity
  8
A-TEXT
100
AcDbText
 10
83.95716
 20
-124.87656
 30
0.0
 40
2.19456
  1
KITCHEN
 72
1
 11
83.95716
 21
-124.87656
 31
0.0
100
AcDbText
 73
2
  0
TEXT
  5
CA
330
17
100
AcDbEntity
  8
A-TEXT
 62
8
100
AcDbText
 10
83.95716
 20
-126.3396
 30
0.0
 40
1.55448
  1
12'-8" x 8'-7"
 72
1
 11
83.95716
 21
-126.3396
 31
0.0
100
AcDbText
 73
2
  0
TEXT
  5
CB
330
17
100
AcDbEntity
  8
A-TEXT
 62
8
100
AcDbText
 10
83.95716
 20
-127.98552000000001
 30
0.0
 40
1.3716000000000002
  1
109 sqft
 72
1
 11
83.95716
 21
-127.98552000000001
 31
0.0
100
AcDbText
 73
2
  0
TEXT
  5
CC
330
17
100
AcDbEntity
  8
A-TEXT
100
AcDbText
 10
39.53256
 20
-150.78456
 30
0.0
 40
2.19456
  1
BATHROOM
 72
1
 11
39.53256
 21
-150.78456
 31
0.0
100
AcDbText
 73
2
  0
TEXT
  5
CD
330
17
100
AcDbEntity
  8
A-TEXT
 62
8
100
AcDbText
 10
39.53256
 20
-152.2476
 30
0.0
 40
1.55448
  1
15'-6" x 7'-7"
 72
1
 11
39.53256
 21
-152.2476
 31
0.0
100
AcDbText
 73
2
  0
TEXT
  5
CE
330
17
100
AcDbEntity
  8
A-TEXT
 62
8
100
AcDbText
 10
39.53256
 20
-153.89352
 30
0.0
 40
1.3716000000000002
  1
118 sqft
 72
1
 11
39.53256
 21
-153.89352
 31
0.0
100
AcDbText
 73
2
  0
TEXT
  5
CF
330
17
100
AcDbEntity
  8
A-TEXT
100
AcDbText
 10
84.64296
 20
-150.78456
 30
0.0
 40
2.19456
  1
STORE ROOM
 72
1
 11
84.64296
 21
-150.78456
 31
0.0
100
AcDbText
 73
2
  0
TEXT
  5
D0
330
17
100
AcDbEntity
  8
A-TEXT
 62
8
100
AcDbText
 10
84.64296
 20
-152.2476
 30
0.0
 40
1.55448
  1
14'-1" x 7'-7"
 72
1
 11
84.64296
 21
-152.2476
 31
0.0
100
AcDbText
 73
2
  0
TEXT
  5
D1
330
17
100
AcDbEntity
  8
A-TEXT
 62
8
100
AcDbText
 10
84.64296
 20
-153.89352
 30
0.0
 40
1.3716000000000002
  1
107 sqft
 72
1
 11
84.64296
 21
-153.89352
 31
0.0
100
AcDbText
 73
2
  0
DIMENSION
  5
D2
330
17
100
AcDbEntity
  8
A-DIMS
100
AcDbDimension
280
0
  2
*D1
  3
Standard
 10
0.0
 20
4.2672
 30
0.0
 11
45.72
 21
4.2672
 31
0.0
 70
32
 71
5
  1
<>
100
AcDbAlignedDimension
 13
0.0
 23
-0.0
 33
0.0
 14
91.44
 24
-0.0
 34
0.0
 50
0.0
100
AcDbRotatedDimension
  0
DIMENSION
  5
E6
330
17
100
AcDbEntity
  8
A-DIMS
100
AcDbDimension
280
0
  2
*D2
  3
Standard
 10
-4.8768
 20
-0.0
 30
0.0
 11
-4.8768
 21
-76.2
 31
0.0
 70
32
 71
5
  1
<>
100
AcDbAlignedDimension
 13
0.0
 23
-0.0
 33
0.0
 14
0.0
 24
-152.4
 34
0.0
 50
90.0
100
AcDbRotatedDimension
  0
CIRCLE
  5
F6
330
17
100
AcDbEntity
  8
A-COMP
 62
7
100
AcDbCircle
 10
100.584
 20
-9.144
 30
0.0
 40
6.096
  0
SOLID
  5
F7
330
17
100
AcDbEntity
  8
A-COMP
 62
7
100
AcDbTrace
 10
100.584
 20
-3.9624
 30
0.0
 11
99.06
 21
-10.668
 31
0.0
 12
102.108
 22
-10.668
 32
0.0
 13
100.584
 23
-3.9624
 33
0.0
  0
TEXT
  5
F8
330
17
100
AcDbEntity
  8
A-COMP
 62
7
100
AcDbText
 10
100.584
 20
-1.2191999999999998
 30
0.0
 40
2.4384
  1
N
 72
1
 11
100.584
 21
-1.2191999999999998
 31
0.0
100
AcDbText
  0
LWPOLYLINE
  5
F9
330
17
100
AcDbEntity
  8
A-TITLE
100
AcDbPolyline
 90
5
 70
1
 10
0.0
 20
-158.496
 10
91.44
 20
-158.496
 10
91.44
 20
-170.68800000000002
 10
0.0
 20
-170.68800000000002
 10
0.0
 20
-158.496
  0
LINE
  5
FA
330
17
100
AcDbEntity
  8
A-TITLE
100
AcDbLine
 10
30.48
 20
-158.496
 30
0.0
 11
30.48
 21
-170.68800000000002
 31
0.0
  0
LINE
  5
FB
330
17
100
AcDbEntity
  8
A-TITLE
100
AcDbLine
 10
60.96
 20
-158.496
 30
0.0
 11
60.96
 21
-170.68800000000002
 31
0.0
  0
TEXT
  5
FC
330
17
100
AcDbEntity
  8
A-TITLE
100
AcDbText
 10
15.24
 20
-162.1536
 30
0.0
 40
2.68224
  1
RESIDENTIAL FLOOR PLAN
 72
1
 11
15.24
 21
-162.1536
 31
0.0
100
AcDbText
  0
TEXT
  5
FD
330
17
100
AcDbEntity
  8
A-TITLE
 62
8
100
AcDbText
 10
15.24
 20
-165.32352
 30
0.0
 40
1.70688
  1
2BHK  ·  MODERN  ·  GROUND FLOOR
 72
1
 11
15.24
 21
-165.32352
 31
0.0
100
AcDbText
  0
TEXT
  5
FE
330
17
100
AcDbEntity
  8
A-TITLE
100
AcDbText
 10
45.72
 20
-163.3728
 30
0.0
 40
2.4384
  1
40' × 60'  |  G+1 DUPLEX
 72
1
 11
45.72
 21
-163.3728
 31
0.0
100
AcDbText
  0
TEXT
  5
FF
330
17
100
AcDbEntity
  8
A-TITLE
 62
8
100
AcDbText
 10
45.72
 20
-166.05504000000002
 30
0.0
 40
1.8288000000000002
  1
SCALE 1:100  |  EAST-FACING
 72
1
 11
45.72
 21
-166.05504000000002
 31
0.0
100
AcDbText
  0
TEXT
  5
100
330
17
100
AcDbEntity
  8
A-TITLE
 62
3
100
AcDbText
 10
76.2
 20
-163.3728
 30
0.0
 40
2.4384
  1
✓ VASTU COMPLIANT
 72
1
 11
76.2
 21
-163.3728
 31
0.0
100
AcDbText
  0
TEXT
  5
101
330
17
100
AcDbEntity
  8
A-TITLE
100
AcDbText
 10
76.2
 20
-166.05504000000002
 30
0.0
 40
1.9507200000000002
  1
Budget: ₹450L
 72
1
 11
76.2
 21
-166.05504000000002
 31
0.0
100
AcDbText
  0
ENDSEC
  0
SECTION
  2
OBJECTS
  0
DICTIONARY
  5
A
330
0
100
AcDbDictionary
281
1
  3
ACAD_COLOR
350
B
  3
ACAD_GROUP
350
C
  3
ACAD_LAYOUT
350
D
  3
ACAD_MATERIAL
350
E
  3
ACAD_MLEADERSTYLE
350
F
  3
ACAD_MLINESTYLE
350
10
  3
ACAD_PLOTSETTINGS
350
11
  3
ACAD_PLOTSTYLENAME
350
12
  3
ACAD_SCALELIST
350
14
  3
ACAD_TABLESTYLE
350
15
  3
ACAD_VISUALSTYLE
350
16
  3
EZDXF_META
350
2D
  0
DICTIONARY
  5
B
330
A
100
AcDbDictionary
281
1
  0
DICTIONARY
  5
C
330
A
100
AcDbDictionary
281
1
  0
DICTIONARY
  5
D
330
A
100
AcDbDictionary
281
1
  3
Model
350
1A
  3
Layout1
350
1E
  0
DICTIONARY
  5
E
330
A
100
AcDbDictionary
281
1
  3
ByBlock
350
1F
  3
ByLayer
350
20
  3
Global
350
21
  0
DICTIONARY
  5
F
330
A
100
AcDbDictionary
281
1
  3
Standard
350
2C
  0
DICTIONARY
  5
10
330
A
100
AcDbDictionary
281
1
  3
Standard
350
22
  0
DICTIONARY
  5
11
330
A
100
AcDbDictionary
281
1
  0
ACDBDICTIONARYWDFLT
  5
12
330
A
100
AcDbDictionary
281
1
  3
Normal
350
13
100
AcDbDictionaryWithDefault
340
13
  0
ACDBPLACEHOLDER
  5
13
330
12
  0
DICTIONARY
  5
14
330
A
100
AcDbDictionary
281
1
  0
DICTIONARY
  5
15
330
A
100
AcDbDictionary
281
1
  0
DICTIONARY
  5
16
330
A
100
AcDbDictionary
281
1
  0
LAYOUT
  5
1A
330
D
100
AcDbPlotSettings
  1

  4
A3
  6

 40
7.5
 41
20.0
 42
7.5
 43
20.0
 44
420.0
 45
297.0
 46
0.0
 47
0.0
 48
0.0
 49
0.0
140
0.0
141
0.0
142
1.0
143
1.0
 70
1024
 72
1
 73
0
 74
5
  7

 75
16
 76
0
 77
2
 78
300
147
1.0
148
0.0
149
0.0
100
AcDbLayout
  1
Model
 70
1
 71
0
 10
0.0
 20
0.0
 11
420.0
 21
297.0
 12
0.0
 22
0.0
 32
0.0
 14
1e+20
 24
1e+20
 34
1e+20
 15
-1e+20
 25
-1e+20
 35
-1e+20
146
0.0
 13
0.0
 23
0.0
 33
0.0
 16
1.0
 26
0.0
 36
0.0
 17
0.0
 27
1.0
 37
0.0
 76
1
330
17
  0
LAYOUT
  5
1E
330
D
100
AcDbPlotSettings
  1

  4
A3
  6

 40
7.5
 41
20.0
 42
7.5
 43
20.0
 44
420.0
 45
297.0
 46
0.0
 47
0.0
 48
0.0
 49
0.0
140
0.0
141
0.0
142
1.0
143
1.0
 70
0
 72
1
 73
0
 74
5
  7

 75
16
 76
0
 77
2
 78
300
147
1.0
148
0.0
149
0.0
100
AcDbLayout
  1
Layout1
 70
1
 71
1
 10
0.0
 20
0.0
 11
420.0
 21
297.0
 12
0.0
 22
0.0
 32
0.0
 14
1e+20
 24
1e+20
 34
1e+20
 15
-1e+20
 25
-1e+20
 35
-1e+20
146
0.0
 13
0.0
 23
0.0
 33
0.0
 16
1.0
 26
0.0
 36
0.0
 17
0.0
 27
1.0
 37
0.0
 76
1
330
1B
  0
MATERIAL
  5
1F
102
{ACAD_REACTORS
330
E
102
}
330
E
100
AcDbMaterial
  1
ByBlock
  2

 70
0
 40
1.0
 71
1
 41
1.0
 91
-1023410177
 42
1.0
 72
1
  3

 73
1
 74
1
 75
1
 44
0.5
 73
0
 45
1.0
 46
1.0
 77
1
  4

 78
1
 79
1
170
1
 48
1.0
171
1
  6

172
1
173
1
174
1
140
1.0
141
1.0
175
1
  7

176
1
177
1
178
1
143
1.0
179
1
  8

270
1
271
1
272
1
145
1.0
146
1.0
273
1
  9

274
1
275
1
276
1
 42
1.0
 72
1
  3

 73
1
 74
1
 75
1
 94
63
  0
MATERIAL
  5
20
102
{ACAD_REACTORS
330
E
102
}
330
E
100
AcDbMaterial
  1
ByLayer
  2

 70
0
 40
1.0
 71
1
 41
1.0
 91
-1023410177
 42
1.0
 72
1
  3

 73
1
 74
1
 75
1
 44
0.5
 73
0
 45
1.0
 46
1.0
 77
1
  4

 78
1
 79
1
170
1
 48
1.0
171
1
  6

172
1
173
1
174
1
140
1.0
141
1.0
175
1
  7

176
1
177
1
178
1
143
1.0
179
1
  8

270
1
271
1
272
1
145
1.0
146
1.0
273
1
  9

274
1
275
1
276
1
 42
1.0
 72
1
  3

 73
1
 74
1
 75
1
 94
63
  0
MATERIAL
  5
21
102
{ACAD_REACTORS
330
E
102
}
330
E
100
AcDbMaterial
  1
Global
  2

 70
0
 40
1.0
 71
1
 41
1.0
 91
-1023410177
 42
1.0
 72
1
  3

 73
1
 74
1
 75
1
 44
0.5
 73
0
 45
1.0
 46
1.0
 77
1
  4

 78
1
 79
1
170
1
 48
1.0
171
1
  6

172
1
173
1
174
1
140
1.0
141
1.0
175
1
  7

176
1
177
1
178
1
143
1.0
179
1
  8

270
1
271
1
272
1
145
1.0
146
1.0
273
1
  9

274
1
275
1
276
1
 42
1.0
 72
1
  3

 73
1
 74
1
 75
1
 94
63
  0
MLINESTYLE
  5
22
102
{ACAD_REACTORS
330
10
102
}
330
10
100
AcDbMlineStyle
  2
Standard
 70
0
  3

 62
256
 51
90.0
 52
90.0
 71
2
 49
0.5
 62
256
  6
BYLAYER
 49
-0.5
 62
256
  6
BYLAYER
  0
MLEADERSTYLE
  5
2C
102
{ACAD_REACTORS
330
F
102
}
330
F
100
AcDbMLeaderStyle
179
2
170
2
171
1
172
0
 90
2
 40
0.0
 41
0.0
173
1
 91
-1056964608
 92
-2
290
1
 42
2.0
291
1
 43
8.0
  3
Standard
 44
4.0
300

342
29
174
1
175
1
176
0
178
1
 93
-1056964608
 45
4.0
292
0
297
0
 46
4.0
 94
-1056964608
 47
1.0
 49
1.0
140
1.0
294
1
141
0.0
177
0
142
1.0
295
0
296
0
143
3.75
271
0
272
9
273
9
  0
DICTIONARY
  5
2D
330
A
100
AcDbDictionary
280
1
281
1
  3
CREATED_BY_EZDXF
350
2E
  3
WRITTEN_BY_EZDXF
350
104
  0
DICTIONARYVAR
  5
2E
330
2D
100
DictionaryVariables
280
0
  1
1.4.3 @ 2026-03-17T20:05:55.529428+00:00
  0
DICTIONARYVAR
  5
104
330
2D
100
DictionaryVariables
280
0
  1
1.4.3 @ 2026-03-17T20:05:55.543437+00:00
  0
ENDSEC
  0
EOF
